<?xml version="1.0" encoding="utf-8"?>
<!-- Generator: Adobe Illustrator 27.4.1, SVG Export Plug-In . SVG Version: 6.00 Build 0)  -->
<svg version="1.1" id="Calque_1" xmlns="http://www.w3.org/2000/svg" xmlns:xlink="http://www.w3.org/1999/xlink" x="0px" y="0px"
	 viewBox="0 0 48 48" style="enable-background:new 0 0 48 48;" xml:space="preserve">
<style type="text/css">
	.st0{fill:#008D41;}
	.st1{fill:#FFFFFF;}
</style>
<circle class="st0" cx="24" cy="24" r="24"/>
<path class="st1" d="M28.5,15c-0.6,0-1.2-0.2-1.7-0.7s-0.7-1-0.7-1.6s0.2-1.2,0.7-1.7s1-0.7,1.6-0.7s1.2,0.2,1.7,0.7s0.7,1,0.7,1.6
	s-0.2,1.2-0.7,1.7S29.1,15,28.5,15z M22.1,21.6l2.9,3v7.9h-1.9v-6.4l-4.4-3.8c-0.2-0.2-0.4-0.4-0.5-0.7S18,21.1,18,20.8
	s0.1-0.6,0.2-0.9s0.3-0.5,0.5-0.7l3.8-3.8c0.2-0.2,0.4-0.3,0.7-0.5c0.3-0.1,0.6-0.2,1-0.2s0.7,0.1,1,0.2c0.3,0.1,0.5,0.3,0.7,0.5
	l2.5,2.5c0.6,0.6,1.3,1.1,2.1,1.5c0.8,0.4,1.7,0.6,2.7,0.6v2c-1.3,0-2.4-0.2-3.5-0.7c-1-0.5-1.9-1.1-2.8-1.9l-1.3-1.3L22.1,21.6z
	 M15,24.1c1.8,0,3.3,0.6,4.4,1.8c1.2,1.2,1.8,2.7,1.8,4.5c0,1.8-0.6,3.3-1.8,4.4c-1.2,1.2-2.7,1.8-4.5,1.8s-3.3-0.6-4.4-1.8
	c-1.2-1.2-1.8-2.7-1.8-4.5s0.6-3.3,1.8-4.4C11.8,24.7,13.3,24.1,15,24.1z M15,35.1c1.3,0,2.4-0.4,3.3-1.3c0.9-0.9,1.3-2,1.3-3.3
	s-0.4-2.4-1.3-3.3s-2-1.3-3.3-1.3s-2.4,0.4-3.3,1.3s-1.3,2-1.3,3.3s0.4,2.4,1.3,3.3C12.6,34.6,13.7,35.1,15,35.1z M33,24.1
	c1.8,0,3.3,0.6,4.4,1.8c1.2,1.2,1.8,2.7,1.8,4.5c0,1.8-0.6,3.3-1.8,4.4c-1.2,1.2-2.7,1.8-4.5,1.8s-3.3-0.6-4.4-1.8
	c-1.2-1.2-1.8-2.7-1.8-4.5s0.6-3.3,1.8-4.4C29.7,24.7,31.2,24.1,33,24.1z M33,35.1c1.3,0,2.4-0.4,3.3-1.3c0.9-0.9,1.3-2,1.3-3.3
	s-0.4-2.4-1.3-3.3s-2-1.3-3.3-1.3s-2.4,0.4-3.3,1.3s-1.3,2-1.3,3.3s0.4,2.4,1.3,3.3C30.5,34.6,31.6,35.1,33,35.1z"/>
</svg>
