<svg width="1746" height="803" viewBox="0 0 1746 803" fill="none" xmlns="http://www.w3.org/2000/svg">
<path d="M443.004 247.595C449.502 225.139 453.71 202.083 455.564 178.78C443.382 178.934 425.421 175.745 425.421 175.745C432.902 175.073 445.949 166.809 456.395 159.326C456.628 140.422 454.841 121.547 451.067 103.023C437.636 103.257 421.677 100.888 421.677 100.888C426.307 100.388 437.685 93.2828 447.16 86.8625C440.469 62.5465 430.486 39.2123 420.536 16.005L420.481 16.0731C404.144 35.9642 387.696 56.038 373.471 77.4388C380.906 85.9001 389.968 95.7743 394.643 99.2066C394.643 99.2066 377.833 97.8271 364.396 91.8304C359.59 99.8552 355.201 108.123 351.246 116.6C348.826 121.817 346.59 127.111 344.54 132.481C356.146 138.905 371.018 146.337 380.806 148.271C380.806 148.271 358.796 148.796 339.249 147.406C333.97 164.024 329.663 180.934 326.35 198.053C324.58 206.863 323 215.716 321.611 224.613C335.248 233.411 349.909 242.179 357.448 244.482C357.448 244.482 337.424 245.554 319.135 242.986C316.928 261.421 316.219 280.005 317.013 298.554C317.37 305.951 318.019 313.381 318.983 320.785C327.199 321.04 335.419 320.4 343.496 318.875C336.343 324.375 328.847 329.413 321.054 333.959C323.559 347.86 327.503 361.462 332.824 374.546C337.365 385.539 343.58 389.905 350.419 390.165C362.621 390.627 376.812 378.006 387.014 366.595C391.306 361.691 395.145 356.409 398.486 350.814C386.958 339.719 382.221 321.331 382.221 321.331L408.249 333.31C419.683 311.67 429.389 289.162 437.278 265.994C423.207 261.259 404.047 249.234 404.047 249.234C411.939 251.309 430.129 249.387 443.004 247.595Z" fill="#019961"/>
<path d="M214.407 320.287C209.164 314.628 204.663 307.714 204.275 300.009C203.887 292.304 208.851 283.966 216.47 282.766C221.328 281.999 226.112 284.108 230.922 285.131C235.733 286.154 241.706 285.579 244.156 281.316C246.928 276.494 243.344 270.464 239.218 266.734C222.101 251.262 193.342 248.859 183.03 228.22C181.078 224.311 180.011 219.615 181.716 215.593C184.374 209.332 192.259 207.418 199.052 207.058C205.846 206.698 213.398 206.807 218.424 202.22C224.138 197.005 223.884 187.413 219.666 180.928C215.448 174.443 208.274 170.52 201.101 167.628C193.928 164.736 186.373 162.561 179.865 158.379C176.005 155.898 172.471 152.579 170.897 148.273C169.323 143.967 170.158 138.567 173.752 135.722C178.856 131.684 188.607 132.602 189.818 126.206C190.711 121.476 185.544 118.153 181.546 115.476C173.084 109.821 166.659 100.267 167.07 90.0991C167.26 85.4078 168.855 80.8818 171.649 77.1081C174.442 73.3344 178.305 70.4871 182.736 68.9356C187.168 67.3841 191.963 67.1999 196.5 68.4069C201.038 69.614 205.108 72.1565 208.182 75.7048C214.854 83.4043 216.002 94.7566 222.694 102.44C226.973 102.721 229.003 97.4821 231.483 93.9859C237.615 85.342 251.822 86.1888 259.51 93.485C267.198 100.781 269.525 112.125 269.558 122.725C269.59 133.325 267.738 143.934 268.79 154.477C269.113 157.716 270.862 161.84 274.083 161.375C275.638 161.151 276.786 159.852 277.72 158.591C281.796 153.1 284.626 146.712 289.126 141.561C293.627 136.41 300.631 132.542 307.196 134.457C310.411 135.393 313.111 137.602 315.372 140.071C326.109 151.803 327.988 169.198 326.427 185.024C324.866 200.849 320.427 216.425 320.647 232.328C320.686 235.161 321.321 238.62 324.003 239.533C325.49 239.904 327.065 239.671 328.381 238.884C335.981 235.067 338.868 225.047 346.474 221.241C351.813 218.568 358.503 219.695 363.488 222.981C368.472 226.268 371.96 231.412 374.519 236.808C382.203 253.013 382.363 271.721 380.836 289.59C379.07 310.283 375.204 330.93 367.549 350.232C364.466 358.013 353.237 390.354 353.237 390.354C353.237 390.354 323.891 371.557 318.567 369.02C295.809 358.18 270.797 353.208 247.81 342.931C235.446 337.404 223.672 330.285 214.407 320.287Z" fill="url(#paint0_linear_205_264)"/>
<path d="M246.448 310.061C228.305 304.81 209.676 301.409 190.847 299.91C190.971 309.752 188.395 324.265 188.395 324.265C187.852 318.221 181.175 307.68 175.129 299.239C159.855 299.051 144.606 300.495 129.639 303.545C129.829 314.399 127.916 327.291 127.916 327.291C127.51 323.547 121.772 314.358 116.585 306.705C96.9387 312.11 78.0851 320.175 59.3351 328.216L59.3899 328.261C75.4632 341.461 91.6799 354.747 108.972 366.241C115.811 360.232 123.788 352.912 126.561 349.136C126.561 349.136 125.445 362.717 120.601 373.574C127.085 377.458 133.764 381.004 140.613 384.199C144.83 386.154 149.106 387.96 153.443 389.618C158.634 380.24 164.638 368.222 166.201 360.316C166.201 360.316 166.626 378.1 165.502 393.892C178.928 398.159 192.591 401.64 206.422 404.317C213.541 405.75 220.694 407.027 227.882 408.147C234.99 397.128 242.075 385.283 243.935 379.191C243.935 379.191 244.801 395.37 242.726 410.147C257.621 411.93 272.635 412.503 287.622 411.861C293.598 411.573 299.605 411.047 305.583 410.27C305.79 403.632 305.273 396.991 304.041 390.465C308.485 396.245 312.556 402.302 316.23 408.599C327.46 406.575 338.45 403.388 349.02 399.088C357.9 395.42 361.43 390.4 361.64 384.876C362.013 375.016 351.817 363.553 342.597 355.311C338.635 351.845 334.368 348.743 329.848 346.043C320.883 355.356 306.027 359.185 306.027 359.185L315.706 338.156C298.222 328.918 280.036 321.076 261.318 314.702C257.492 326.071 247.776 341.551 247.776 341.551C249.45 335.16 247.897 320.464 246.448 310.061Z" fill="#019961"/>
<g clip-path="url(#clip0_205_264)">
<path d="M364.608 677.64C366.552 675.168 368.561 672.744 370.425 670.216C372.912 666.845 375.345 663.43 377.675 659.958C378.558 658.562 379.293 657.079 379.868 655.531C380.326 654.384 379.887 653.674 378.761 653.598C376.102 653.421 374.596 651.711 373.334 649.703C371.943 647.257 371.125 644.526 370.942 641.718C370.088 634.254 370.684 626.694 372.698 619.456C373.726 615.766 375.023 612.104 376.204 608.432C377.73 603.692 379.383 598.972 380.753 594.218C382.488 588.458 383.307 582.46 383.179 576.446C383.1 569.078 380.881 561.892 376.793 555.763C376.017 554.632 375.144 553.571 374.186 552.59C373.415 551.793 372.537 551.107 371.576 550.553C367.764 548.389 363.775 549.769 360.762 554.209C359.08 556.689 357.82 559.431 357.035 562.323C356.186 565.431 355.44 568.551 354.795 571.68C353.827 576.915 352.546 582.087 350.958 587.167C350.381 588.918 349.704 590.633 348.932 592.306C348.457 593.231 347.854 594.083 347.14 594.838C347.02 595.017 346.864 595.169 346.681 595.284C346.499 595.399 346.295 595.475 346.081 595.507C345.868 595.538 345.651 595.525 345.443 595.468C345.235 595.41 345.041 595.31 344.874 595.174C344.178 594.544 343.577 593.815 343.092 593.012C341.988 591.047 341.263 588.893 340.955 586.662C340.517 584.017 340.151 581.339 339.894 578.632C339.051 569.754 338.165 560.895 336.762 552.202C335.524 543.998 333.532 535.925 330.811 528.086C328.514 521.668 325.663 515.622 321.53 510.507C317.167 504.935 311.136 500.904 304.319 499.002C302.698 498.538 301.024 498.28 299.339 498.234C294.448 498.134 290.469 501.227 288.6 506.415C287.889 508.268 287.57 510.248 287.66 512.231C287.756 514.659 288.027 517.078 288.472 519.467C289.34 523.492 290.441 527.417 291.501 531.359C292.778 536.086 294.252 540.724 295.395 545.512C296.258 549.145 296.769 552.94 297.341 556.696C297.546 558.198 297.62 559.715 297.565 561.23C297.54 562.41 297.372 563.582 297.066 564.722C296.825 565.869 296.208 566.903 295.314 567.661C294.419 568.418 293.297 568.856 292.126 568.904C290.539 568.952 288.981 568.475 287.693 567.547C285.291 565.904 283.189 563.863 281.475 561.512C278.773 557.964 276.596 554.046 275.01 549.879C273.492 545.879 272.125 541.794 270.726 537.726C268.619 531.63 266.717 525.415 264.412 519.438C259.894 507.515 253.434 496.42 245.295 486.605C241.109 481.594 236.474 477.093 230.758 473.875C226.732 471.474 222.294 469.846 217.671 469.075C215.412 468.689 213.102 468.705 210.849 469.124C206.165 470.08 203.108 473.315 202.237 478.238C201.847 480.402 201.896 482.624 202.381 484.769C203.035 487.617 203.799 490.416 204.605 493.194C205.285 495.541 206.135 497.802 206.821 500.133C207.938 503.581 208.503 507.183 208.493 510.807C208.457 512.473 208.244 514.13 207.856 515.75C207.548 517.059 206.904 518.264 205.988 519.247C205.071 520.229 203.914 520.956 202.631 521.354C201.209 521.851 199.703 522.058 198.2 521.964C195.313 521.805 192.505 520.96 190.01 519.499C186.663 517.603 183.692 515.111 181.242 512.145C177.005 507.097 172.934 501.9 168.778 496.769C164.236 491.103 159.328 485.739 154.087 480.712C151.061 477.838 148.027 474.968 144.84 472.292C133.822 463.033 121.595 455.697 107.188 451.922C102.802 450.721 98.2794 450.096 93.7326 450.06C91.1231 450.032 88.5188 450.302 85.9704 450.864C83.8609 451.33 81.827 452.09 79.9284 453.121C77.3307 454.492 75.1227 456.499 73.5106 458.955C71.8985 461.41 70.9348 464.234 70.7094 467.163C70.5228 469.868 70.8913 472.583 71.7924 475.141C73.1322 479.118 75.2909 482.771 78.1292 485.864C81.7139 489.78 85.8812 493.025 89.8595 496.478C92.1074 498.429 94.485 500.226 96.7461 502.165C100.024 504.939 102.83 508.226 105.055 511.898C105.84 513.169 106.498 514.514 107.02 515.913C107.516 517.288 107.844 518.718 107.996 520.172C108.462 524.711 106.568 528.655 102.899 532.01C100.819 533.951 98.337 535.411 95.6295 536.285C93.4461 536.999 91.2124 537.548 88.947 537.928C85.6039 538.449 82.272 538.731 78.9382 539.069C74.252 539.403 69.5995 540.107 65.0244 541.175C62.3994 541.894 59.8131 542.748 57.2756 543.733C55.476 544.443 53.8177 545.469 52.3791 546.762C51.3777 547.545 50.5995 548.577 50.1221 549.755C49.6448 550.933 49.4851 552.216 49.6591 553.475C49.9765 555.856 51.1348 558.045 52.925 559.647C55.528 561.99 58.4804 563.913 61.6757 565.347C70.5228 569.587 80.2862 571.416 90.5799 571.819C99.7746 572.143 108.981 571.753 118.115 570.653C123.025 570.074 127.927 569.646 132.813 569.297C136.425 569.022 140.056 569.195 143.625 569.812C145.257 570.106 146.86 570.539 148.417 571.108C149.742 571.536 150.843 572.473 151.478 573.713C151.955 574.672 151.742 575.528 150.717 576.271C149.904 576.873 149.029 577.387 148.109 577.807C146.021 578.723 143.92 579.613 141.803 580.363C138.117 581.673 134.415 582.878 130.718 584.12C125.525 585.783 120.506 587.944 115.73 590.574C111.324 592.862 107.42 596.007 104.246 599.824C103.089 601.163 102.216 602.723 101.68 604.409C101.145 606.095 100.958 607.873 101.131 609.634C101.351 611.968 102.135 614.214 103.414 616.178C106.139 620.499 110.341 623.683 115.238 625.137C118.618 626.209 122.127 626.82 125.67 626.955C131.872 627.186 138.08 626.73 144.181 625.595C148.277 624.88 152.374 624.03 156.469 623.263C163.358 621.976 170.245 620.641 177.129 619.452C182.322 618.512 187.602 618.144 192.875 618.355C194.497 618.435 196.105 618.589 197.69 618.806C198.641 618.957 199.577 619.194 200.486 619.514C201.641 619.898 203.011 620.273 202.855 621.883C202.698 623.455 201.236 624.226 200.024 624.917C198.637 625.714 197.198 626.416 195.717 627.02C192.881 628.167 190.029 629.218 187.179 630.272C182.394 632.036 177.589 633.699 172.827 635.55C168.265 637.376 163.872 639.6 159.701 642.197C157.027 643.766 154.589 645.706 152.459 647.959C151.191 649.345 150.047 650.84 149.042 652.427C147.337 655.043 146.632 658.186 147.057 661.279C147.299 663.774 148.149 666.172 149.532 668.263C150.915 670.354 152.789 672.075 154.99 673.275C158.543 675.206 162.495 676.286 166.535 676.431C173.955 676.838 181.395 676.213 188.642 674.574C198.88 672.328 209.122 670.103 219.362 668.012C223.826 667.101 228.294 666.458 232.744 665.86C236.008 665.396 239.319 665.357 242.593 665.744C243.904 665.816 245.176 666.217 246.291 666.912C246.52 667.041 246.717 667.221 246.866 667.438C247.015 667.655 247.112 667.903 247.15 668.163C247.188 668.424 247.166 668.69 247.085 668.94C247.004 669.191 246.867 669.419 246.684 669.608C245.85 670.928 244.843 672.129 243.691 673.182C241.645 674.926 239.449 676.454 237.291 678.022C233.303 680.916 229.253 683.713 225.307 686.679C222.135 689.064 219.324 691.895 216.961 695.084C215.722 696.751 214.754 698.602 214.091 700.571C212.984 703.454 213.029 706.653 214.217 709.505C215.515 712.543 217.899 714.989 220.903 716.363C224.695 718.132 228.709 719.374 232.837 720.055C236.666 720.64 240.571 720.486 244.342 719.601C249.773 718.451 255.066 716.726 260.131 714.453C265.478 712.05 270.837 709.661 276.114 707.002C285.799 702.122 295.644 698.006 305.559 694.192C315.365 690.248 325.969 688.692 336.495 689.653C341.212 690.128 345.975 690.434 350.722 690.821C350.812 690.83 350.902 690.842 350.988 690.852C351.966 690.985 352.963 690.836 353.859 690.421C354.756 690.006 355.515 689.343 356.046 688.51C358.845 684.846 361.737 681.254 364.59 677.628L364.608 677.64Z" fill="#B3D553"/>
</g>
<path d="M1488.42 423.368C1492.32 421.164 1497.5 422.988 1500.51 426.32C1503.51 429.652 1504.85 434.12 1506.11 438.428C1508.58 446.929 1510.63 463.09 1511.37 469.397C1512.12 466.207 1512.9 463.025 1513.77 459.86C1515.98 451.893 1518.73 444.085 1522 436.49C1523.73 432.738 1525.37 428.95 1527.37 425.327C1528.18 423.691 1529.06 422.088 1529.96 420.501C1524.42 415.302 1521.16 408.1 1518.51 400.952C1516.4 395.292 1514.58 388.945 1516.83 383.335C1517.66 381.253 1519.18 379.291 1521.31 378.617C1524.68 377.555 1528.21 380.047 1530.11 383.024C1533.12 387.731 1533.59 393.609 1533.46 399.198C1533.34 404.591 1531.58 414.77 1530.81 419.02C1531.68 417.522 1532.57 416.031 1533.44 414.536C1539.59 404.575 1546.69 395.234 1554.64 386.642C1546.9 377.656 1547.53 362.545 1556.16 354.344C1556.82 353.622 1557.66 353.097 1558.6 352.828C1561.57 352.213 1563.42 355.981 1563.78 358.994C1564.63 366.287 1558.67 379.723 1556.17 384.985C1564.22 376.487 1573.08 368.799 1582.62 362.029C1585.29 358.446 1593.08 346.667 1595.85 343.774C1598.47 341.037 1601.63 338.611 1605.34 337.829C1609.04 337.048 1613.35 338.274 1615.35 341.496C1618.33 346.322 1614.94 352.7 1610.58 356.337C1604.95 361.034 1588.26 362.59 1583.23 362.957C1574.09 369.546 1565.6 376.99 1557.86 385.187C1560.83 383.862 1571.95 378.911 1577.03 377.157C1582.93 375.126 1590.25 374.661 1594.64 379.089C1596.69 381.159 1597.7 384.724 1595.84 386.966C1594.33 388.774 1591.68 388.982 1589.33 388.994C1578.61 389.042 1567.93 387.902 1557.47 385.595C1548.91 394.712 1541.32 404.697 1534.83 415.388C1533.88 417.046 1532.91 418.697 1531.96 420.36C1536.25 417.521 1554.15 405.955 1564.06 403.977C1568.64 403.065 1574.74 403.699 1576.03 408.182C1576.71 410.557 1575.58 413.171 1573.78 414.865C1571.98 416.558 1569.62 417.502 1567.27 418.284C1556.72 421.806 1542.67 422.62 1531.57 421.063C1530.63 422.724 1529.72 424.4 1528.89 426.119C1526.94 429.718 1525.34 433.483 1523.65 437.206C1520.47 444.741 1517.81 452.483 1515.68 460.378C1514.61 464.385 1513.65 468.421 1512.78 472.478C1518.11 462.575 1525.6 453.995 1534.68 447.371C1538.59 444.529 1542.99 442.002 1547.81 441.69C1552.63 441.379 1557.92 443.866 1559.49 448.439C1561.31 453.69 1557.78 459.333 1553.55 462.942C1542.69 472.229 1527.45 474.019 1513.18 474.643L1512.33 474.608C1509.97 485.877 1508.09 497.282 1505.72 508.616C1504.36 515.018 1502.8 521.375 1501.02 527.685C1506.99 520.016 1526.37 496.101 1540.82 489.269C1544.4 487.577 1548.54 486.125 1552.22 487.556C1555.71 488.913 1557.87 492.718 1557.97 496.464C1558.06 500.21 1556.37 503.832 1554.01 506.735C1551.08 510.32 1547.17 512.951 1543.28 515.443C1530.04 523.921 1515.84 531.596 1500.3 530.172C1495.33 547.383 1488.69 564.069 1480.49 579.995C1486.43 572.884 1497.35 560.305 1504.84 554.587C1510.28 550.441 1516.2 546.592 1522.9 545.279C1527.46 544.385 1532.18 544.713 1536.77 545.45C1540.63 546.071 1544.72 547.136 1547.27 550.104C1549.93 553.194 1550.28 557.801 1548.98 561.666C1547.68 565.53 1544.97 568.758 1542 571.55C1535.97 577.144 1528.79 581.342 1520.96 583.848C1513.13 586.353 1504.85 587.104 1496.7 586.048C1492.66 585.494 1482.98 585.967 1477.64 585.356C1474.9 590.358 1472 595.266 1468.94 600.081C1461.77 611.332 1453.64 621.945 1444.65 631.801C1455.38 626.02 1490.06 607.881 1510.03 604.093C1518.36 602.512 1528.35 602.168 1533.82 608.659C1538.99 614.797 1537.25 624.693 1531.85 630.63C1526.44 636.567 1518.39 639.304 1510.54 640.925C1487.85 645.608 1463.49 643.951 1442.54 634.106C1441.05 635.69 1439.53 637.253 1438 638.794C1426.28 650.566 1413.14 660.817 1398.87 669.305L1396.97 666.05C1410.91 657.893 1423.77 648.027 1435.27 636.683L1434.9 636.597L1417.72 613.207C1414.71 609.11 1411.69 604.989 1409.37 600.466C1406.87 595.649 1405.27 590.415 1404.65 585.022C1403.64 575.81 1406.82 565.055 1415.32 561.385C1417.15 560.514 1419.21 560.252 1421.21 560.638C1424.36 561.385 1426.56 564.196 1428.22 566.978C1436.64 581.054 1437.77 598.175 1438.63 614.565C1439 621.75 1439.27 629.338 1436.18 635.776C1447.54 624.434 1457.66 611.912 1466.37 598.422C1468.25 595.535 1470.05 592.6 1471.8 589.638C1467.49 586.357 1451.35 573.97 1444.87 567.158C1437.36 559.259 1432.23 548.902 1431.49 538.016C1431.23 534.157 1431.59 530.03 1433.85 526.895C1436.74 522.902 1442.3 521.431 1447.09 522.526C1451.89 523.621 1455.96 526.896 1459.01 530.758C1463.75 536.75 1466.33 544.117 1468.82 551.344C1472.6 562.323 1476.32 574.228 1474.25 585.402C1484.23 567.642 1492.19 548.813 1497.96 529.271C1491.4 525.412 1484.84 521.468 1479.18 516.389C1473.25 511.073 1468.31 504.36 1466.41 496.625C1465.51 492.956 1465.34 488.975 1466.8 485.49C1468.26 482.005 1471.6 479.155 1475.37 479.081C1478.98 479.012 1482.17 481.338 1484.85 483.76C1490.06 488.475 1498.96 511.576 1499.68 523.26C1501.06 518.245 1502.31 513.2 1503.43 508.124C1506.05 496.051 1508.1 483.804 1510.83 471.677C1496.61 466.221 1485.71 451.861 1483.87 436.723C1483.27 431.767 1484.07 425.82 1488.42 423.368Z" fill="url(#paint1_linear_205_264)"/>
<circle cx="1637" cy="67" r="51" stroke="#79C258" stroke-width="30"/>
<circle cx="1637.5" cy="213.5" r="37.5" stroke="#B5D653" stroke-width="30"/>
<defs>
<linearGradient id="paint0_linear_205_264" x1="240.613" y1="98.5931" x2="337.465" y2="436.356" gradientUnits="userSpaceOnUse">
<stop stop-color="#B5D653"/>
<stop offset="0.995" stop-color="#019961"/>
</linearGradient>
<linearGradient id="paint1_linear_205_264" x1="1690.11" y1="457.369" x2="1414.61" y2="720.354" gradientUnits="userSpaceOnUse">
<stop stop-color="#B5D653"/>
<stop offset="0.995" stop-color="#019961"/>
</linearGradient>
<clipPath id="clip0_205_264">
<rect width="376.757" height="406.305" fill="white" transform="translate(0 402.423) rotate(-10)"/>
</clipPath>
</defs>
</svg>
