<svg xmlns="http://www.w3.org/2000/svg" xmlns:xlink="http://www.w3.org/1999/xlink" width="1481.5" height="1214.146" viewBox="0 0 1481.5 1214.146">
  <defs>
    <linearGradient id="linear-gradient" x1="1" y1="0.5" x2="0" y2="0.5" gradientUnits="objectBoundingBox">
      <stop offset="0" stop-color="#d8efd1"/>
      <stop offset="0.483" stop-color="#e5f3dd"/>
      <stop offset="1" stop-color="#eff7e7"/>
    </linearGradient>
    <linearGradient id="linear-gradient-3" x1="0.445" y1="0.809" x2="0.554" y2="0.121" gradientUnits="objectBoundingBox">
      <stop offset="0" stop-color="#b5d653"/>
      <stop offset="0.995" stop-color="#019961"/>
    </linearGradient>
    <linearGradient id="linear-gradient-4" x1="1.74" y1="1.09" x2="1.629" y2="0.516" xlink:href="#linear-gradient-3"/>
    <linearGradient id="linear-gradient-5" x1="1.717" y1="1.379" x2="1.717" y2="0.348" xlink:href="#linear-gradient-3"/>
    <linearGradient id="linear-gradient-6" x1="1.485" y1="0.931" x2="1.485" y2="0.182" gradientUnits="objectBoundingBox">
      <stop offset="0"/>
      <stop offset="0.199" stop-color="#151515"/>
      <stop offset="0.428" stop-color="#252525"/>
      <stop offset="0.681" stop-color="#2f2f2f"/>
      <stop offset="1" stop-color="#333"/>
    </linearGradient>
    <linearGradient id="linear-gradient-7" x1="1.076" y1="0.655" x2="1.214" y2="-0.27" xlink:href="#linear-gradient-3"/>
    <linearGradient id="linear-gradient-8" x1="-0.964" y1="0.937" x2="-0.963" y2="0.272" gradientUnits="objectBoundingBox">
      <stop offset="0" stop-color="#b15945"/>
      <stop offset="1" stop-color="#9c3e3f"/>
    </linearGradient>
    <linearGradient id="linear-gradient-9" x1="0.934" y1="0.939" x2="0.934" y2="0.375" xlink:href="#linear-gradient-8"/>
    <linearGradient id="linear-gradient-10" x1="2.973" y1="0.758" x2="2.973" y2="0.513" gradientUnits="objectBoundingBox">
      <stop offset="0" stop-color="#c0755e"/>
      <stop offset="1" stop-color="#b15945"/>
    </linearGradient>
    <linearGradient id="linear-gradient-11" x1="1.317" y1="0.622" x2="1.317" y2="0.337" xlink:href="#linear-gradient-10"/>
    <linearGradient id="linear-gradient-12" x1="-1.131" y1="0.377" x2="-1.131" y2="1.171" xlink:href="#linear-gradient-3"/>
    <linearGradient id="linear-gradient-13" x1="-0.108" y1="-3.422" x2="-1.037" y2="-2.62" xlink:href="#linear-gradient-3"/>
    <linearGradient id="linear-gradient-14" x1="0.473" y1="0.924" x2="0.551" y2="-0.02" xlink:href="#linear-gradient-3"/>
    <linearGradient id="linear-gradient-15" x1="0.406" y1="1.011" x2="0.614" y2="-0.001" xlink:href="#linear-gradient-3"/>
    <linearGradient id="linear-gradient-16" x1="0.181" y1="1.702" x2="0.754" y2="-0.509" xlink:href="#linear-gradient-3"/>
    <linearGradient id="linear-gradient-17" x1="0.5" y1="0.642" x2="0.5" y2="1.194" xlink:href="#linear-gradient-3"/>
    <linearGradient id="linear-gradient-18" x1="1" y1="0.5" x2="0" y2="0.5" xlink:href="#linear-gradient-6"/>
    <linearGradient id="linear-gradient-19" x1="1" y1="0.5" x2="0" y2="0.5" xlink:href="#linear-gradient"/>
    <linearGradient id="linear-gradient-20" x1="0.149" y1="1.169" x2="0.149" y2="-0.656" xlink:href="#linear-gradient-3"/>
  </defs>
  <g id="Groupe_146" data-name="Groupe 146" transform="translate(180 -1863.724)">
    <g id="Groupe_128" data-name="Groupe 128" transform="translate(-180 1863.724)">
      <g id="Groupe_98" data-name="Groupe 98" transform="translate(0 0)">
        <g id="Groupe_97" data-name="Groupe 97">
          <g id="Groupe_89" data-name="Groupe 89" transform="translate(0 191.081)">
            <path id="Tracé_134" data-name="Tracé 134" d="M1160.776,2790.391a58.213,58.213,0,0,1,28.071,7.17,75.926,75.926,0,0,1,80.993-31.98,100.155,100.155,0,0,1,199.5,12.709c0,.1-.007.2-.008.3,1.993-.2,4.013-.3,6.058-.3a61.176,61.176,0,0,1,61.176,61.176H1103.053A58.5,58.5,0,0,1,1160.776,2790.391Z" transform="translate(-889.799 -2445.955)" fill="url(#linear-gradient)"/>
            <path id="Tracé_135" data-name="Tracé 135" d="M1606.016,3250.339a26.764,26.764,0,0,1,37.767-34.124,37.5,37.5,0,0,1,47.5-30.212,49.169,49.169,0,0,1,94.583,3.691,14.219,14.219,0,0,1,17.065,17.454,32.506,32.506,0,0,1,24.683,16.547c.841-.08,1.693-.125,2.555-.125a26.768,26.768,0,0,1,26.768,26.768Z" transform="translate(-1603.69 -3152.001)" fill="url(#linear-gradient)"/>
          </g>
          <g id="Groupe_94" data-name="Groupe 94" transform="translate(360.276)">
            <path id="Tracé_136" data-name="Tracé 136" d="M431.62,3691.015s-650.088-226.542-741.349-4.612c-50.73,123.366,147,328.592,370.1,210.991s308.991-42.083,430.052,44.388,261.144-36.318,261.144-147-115.872-125.672-122.789-119.907" transform="translate(325.752 -2770.382)" fill="#019961"/>
            <path id="Tracé_137" data-name="Tracé 137" d="M431.62,3562.015s-650.088-226.542-741.349-4.612c-50.73,123.366,147,328.592,370.1,210.991s308.991-42.083,430.052,44.388,261.144-36.318,261.144-147-115.872-125.672-122.789-119.907" transform="translate(325.752 -2715.748)" fill="url(#linear-gradient-3)"/>
            <g id="Groupe_90" data-name="Groupe 90" transform="translate(0)">
              <path id="Tracé_138" data-name="Tracé 138" d="M792.807,2655.874c-22.468-46.775-70.275-72.021-114.623-94.089a11.946,11.946,0,0,0-10.888-.167c-78.889-31.275-180-62.544-250.921,2.87-29.46,27.173-47.656,72.178-44.712,112.3,1.438,19.593,9.047,37.3,24.418,49.9,14.839,12.16,34.207,17.839,48.311,30.843,16.007,14.758,21.452,37.414,29.3,56.92,7.48,18.59,17.4,35.723,31.058,50.492,26.268,28.4,64.426,44.777,103.11,37.348,37.866-7.272,64.421-34.31,73.268-71.206,2.351-9.809,3.9-20.733,10.115-28.979,6.261-8.3,16.178-11.125,25.915-13.275,18.81-4.156,37.683-5.933,53.664-17.759C807,2744.3,811.228,2694.223,792.807,2655.874Z" transform="translate(-123.422 -2320.218)" fill="#019961"/>
              <path id="Tracé_139" data-name="Tracé 139" d="M1202.039,2615.01c-1.859-40.529-13.606-80.249-37.636-114.794-22.633-32.536-53.725-58.849-90.556-73.841-44.549-18.135-93.112-15.021-138.783-2.756-81.574,21.906-192.225,66.44-202.563,163.543-4.611,43.314,15.891,78.83,51.23,102.324,17.633,11.723,37.838,21.375,50.1,39.353,12.571,18.434,17.934,40.643,32.348,58.025,32.523,39.221,87.882,44.325,134.5,33.5,52.575-12.212,103.069-38.584,146.895-69.86C1192.611,2705.3,1200.629,2635.879,1202.039,2615.01Z" transform="translate(-729.799 -2272.593)" fill="url(#linear-gradient-4)"/>
              <path id="Tracé_140" data-name="Tracé 140" d="M1071.821,2643.814c-15.531,35.657-44.312,66.886-83.095,76.614-31.935,8.011-77.069-2.158-85.465-39.1-4.045-17.8,4.43-34.123,15.525-47.4,5.972-7.144,12.812-13.487,19.216-20.231,6.025-6.345,15-16.329,2.508-20.307-17.276-5.5-35.124,17.252-48.813,24.753a97.624,97.624,0,0,1-49.628,11.7c-35.407-1.108-69.051-20.418-84.5-52.861-14.736-30.947-13.051-68.342,5.447-97.273a11.383,11.383,0,0,1,1.7-14.376c33.5-34.43,70.662-70.741,120.457-77.613,47.778-6.593,95.315,19.972,135.235,43.271,34.079,19.889,64.075,47.474,70.527,88.21C1097.329,2559.556,1088.018,2606.631,1071.821,2643.814Z" transform="translate(-629.855 -2261.201)" fill="url(#linear-gradient-5)"/>
              <path id="Tracé_141" data-name="Tracé 141" d="M878.978,2797.529c-4.616,17.464-9.17,34.886-13.457,52.293-14.735,59.75-26.564,119.733-27.907,179.4-.277,14.9-.018,29.748.911,44.486,1.077,14.718,2.77,29.315,5.222,43.706q.469,2.577.971,5.144h-50.7c-1.893-15.583-2.992-31.173-3.446-46.717-.327-16.327.1-32.582,1.1-48.744,1.147-16.146,2.9-32.181,5.152-48.1,2.383-15.91,5.245-31.627,8.483-47.228,2.757-12.9,5.8-25.687,8.991-38.407a808.169,808.169,0,0,1-51.7-166.916c-20.34-16.623-40.854-34.1-57.095-56-20.691-27.9-30.35-58.9-27.2-87.278l21.712,2.411c-2.542,22.884,5.636,48.4,23.03,71.853,9.664,13.026,21.372,24.616,33.734,35.523a806.605,806.605,0,0,1,.776-248.933l21.639,3a781.452,781.452,0,0,0,52.565,383.265c16.934-56.851,35.765-112.385,50.371-168.667,15.429-59.356,26.312-119.932,24.958-180.769l21.825-.965q1.426,23.818.847,47.673c-.5,15.875-1.6,31.709-3.191,47.479-1.7,15.75-3.885,31.424-6.441,47.015-2.641,15.569-5.642,31.049-8.907,46.45-5.388,25.153-11.555,50.02-17.955,74.725a513.325,513.325,0,0,0,136.879-203.855l20.671,7.067C1019.4,2643.886,959.162,2732.184,878.978,2797.529Z" transform="translate(-547.383 -2285.478)" fill="url(#linear-gradient-6)"/>
              <path id="Tracé_142" data-name="Tracé 142" d="M1262.5,2935.313c0,2.376-4.1,4.3-9.169,4.3s-9.169-1.927-9.169-4.3,4.1-4.3,9.169-4.3S1262.5,2932.937,1262.5,2935.313Z" transform="translate(-1085.587 -2491.729)" fill="#fff0b3"/>
              <path id="Tracé_143" data-name="Tracé 143" d="M631.946,2879.063c0,2.376-4.105,4.3-9.169,4.3s-9.169-1.927-9.169-4.3,4.1-4.3,9.169-4.3S631.946,2876.687,631.946,2879.063Z" transform="translate(-91.538 -2467.906)" fill="#fff0b3"/>
              <path id="Tracé_144" data-name="Tracé 144" d="M706.269,2910.085c0,2.919-5.044,5.287-11.265,5.287s-11.266-2.367-11.266-5.287,5.044-5.288,11.266-5.288S706.269,2907.164,706.269,2910.085Z" transform="translate(-206.288 -2480.628)" fill="#fff0b3"/>
              <ellipse id="Ellipse_53" data-name="Ellipse 53" cx="18.837" cy="8.84" rx="18.837" ry="8.84" transform="translate(509.334 434.744)" fill="#fff0b3"/>
              <ellipse id="Ellipse_54" data-name="Ellipse 54" cx="18.837" cy="8.84" rx="18.837" ry="8.84" transform="translate(167.741 461.789)" fill="#fff0b3"/>
              <path id="Tracé_145" data-name="Tracé 145" d="M1087.412,2407.944c-5.753-58.666-45.474-113.675-108.845-113.441-34.544.128-67.744,12.932-101.239-1.492-30.522-13.144-53.307-38.587-77.161-60.772-46.145-42.917-104.132-68.657-168.155-62.273-63.644,6.346-122.516,43.784-154.91,99.083-16.767,28.625-27.174,66.853-8,96.983,8.973,14.1,22.6,23.61,35.151,34.211,7.959,6.725,18.982,17.264,22.06,28.73-11.509,21.348-9.184,48.329,5.714,67.724,17.844,23.23,48.587,31.94,76.657,26.046,28.258-5.934,50.185-25.758,65.883-49.085,14.6-21.7,24.255-47.308,42.119-66.706,18.772-20.385,46.578-27.085,71.892-14.381,26.056,13.076,28.6,43.673,49.484,61.591,24.627,21.132,58.1,6.909,85.16,20.684,27.7,14.1,45.694,41.632,76.172,51.481,27.987,9.044,55.806-2.783,71.609-26.995C1087.747,2473.682,1090.325,2437.647,1087.412,2407.944Z" transform="translate(-458.785 -2169)" fill="url(#linear-gradient-7)"/>
              <path id="Tracé_146" data-name="Tracé 146" d="M1297.253,2471.846c0,4.882-8.433,8.84-18.836,8.84s-18.837-3.958-18.837-8.84,8.433-8.841,18.837-8.841S1297.253,2466.963,1297.253,2471.846Z" transform="translate(-1129.232 -2293.518)" fill="#fff0b3"/>
              <path id="Tracé_147" data-name="Tracé 147" d="M1249.92,2418.883c0,2.92-5.043,5.287-11.265,5.287s-11.265-2.367-11.265-5.287,5.043-5.287,11.265-5.287S1249.92,2415.963,1249.92,2418.883Z" transform="translate(-1063.342 -2272.592)" fill="#fff0b3"/>
              <ellipse id="Ellipse_55" data-name="Ellipse 55" cx="9.169" cy="4.303" rx="9.169" ry="4.303" transform="translate(112.009 148.258)" fill="#fff0b3"/>
              <path id="Tracé_148" data-name="Tracé 148" d="M776.439,2522.886c0,2.375-4.106,4.3-9.17,4.3s-9.169-1.928-9.169-4.3,4.106-4.3,9.169-4.3S776.439,2520.508,776.439,2522.886Z" transform="translate(-319.327 -2317.056)" fill="#fff0b3"/>
              <path id="Tracé_149" data-name="Tracé 149" d="M734.847,2477.668c0,2.92-5.044,5.286-11.266,5.286s-11.266-2.367-11.266-5.286,5.044-5.288,11.266-5.288S734.847,2474.748,734.847,2477.668Z" transform="translate(-251.34 -2297.489)" fill="#fff0b3"/>
              <path id="Tracé_150" data-name="Tracé 150" d="M751.155,2574.08c0,4.883-8.434,8.841-18.837,8.841s-18.836-3.958-18.836-8.841,8.433-8.84,18.836-8.84S751.155,2569.2,751.155,2574.08Z" transform="translate(-268.322 -2336.817)" fill="#fff0b3"/>
            </g>
            <g id="Groupe_91" data-name="Groupe 91" transform="translate(209.606 538.429)">
              <path id="Tracé_151" data-name="Tracé 151" d="M1011.7,3103s-140.115,246.9-195.4,276.442l71.951,3.786,142.008-122.694Z" transform="translate(-816.296 -3103)" fill="#893136"/>
              <path id="Tracé_152" data-name="Tracé 152" d="M207.349,3577.005v97.1H399.514s23.479-77.251,30.295-83.311Z" transform="translate(135.193 -3303.752)" fill="url(#linear-gradient-8)"/>
              <path id="Tracé_153" data-name="Tracé 153" d="M667.258,3103s-75.737,196.918-159.049,266.6v103.76H814.4l49.021-149.2Z" transform="translate(-471.855 -3103)" fill="url(#linear-gradient-9)"/>
              <path id="Tracé_154" data-name="Tracé 154" d="M86.48,3103l252.964,65.135s119.665,216.609,186.314,243.874h-246.9S124.349,3318.094,86.48,3103Z" transform="translate(108.922 -3103)" fill="#c0755e"/>
              <path id="Tracé_155" data-name="Tracé 155" d="M835.5,3103l-53.773,317.93-2.453,52.427H875.4l-8.415-83.156-14.979-147.086Z" transform="translate(-640.099 -3103)" fill="#511f24"/>
              <path id="Tracé_156" data-name="Tracé 156" d="M978.276,3103s-2.108,178.922-21.76,273.253c-11.44,54.912-34.467,97.1-34.467,97.1s-29.826-60.34-73.566-56.124C848.484,3417.232,922.05,3343.98,978.276,3103Z" transform="translate(-782.874 -3103)" fill="url(#linear-gradient-10)"/>
              <path id="Tracé_157" data-name="Tracé 157" d="M665.919,3103s14.075,291.572,39.9,370.356c0,0,34.781-39.4,65.346-48.552C771.164,3424.8,708.979,3345.562,665.919,3103Z" transform="translate(-470.517 -3103)" fill="url(#linear-gradient-11)"/>
            </g>
            <g id="Groupe_92" data-name="Groupe 92" transform="translate(649.551 686.398)">
              <path id="Tracé_158" data-name="Tracé 158" d="M-392.438,3544.265c-2.065-19.018-2.808-38.732,3.473-56.8s20.934-34.29,39.787-37.532c15.491-2.664,31.732,3.5,46.944-.448,22.812-5.928,33.76-30.966,44.539-51.927s31.037-43.193,53.707-36.745c20.775,5.909,27.6,31.288,31.85,52.465s13.92,46.479,35.381,48.924c13.392,1.525,25.534-6.984,37.6-13s28.595-8.935,37.484,1.2c6.03,6.873,5.971,17.074,9.674,25.433,7.111,16.048,26.566,22.506,44.078,23.7s35.728-.986,52.131,5.262c28.932,11.021,42.692,50.364,26.935,77.015h-465.06Z" transform="translate(393.919 -3359.678)" fill="url(#linear-gradient-12)"/>
            </g>
            <g id="Groupe_93" data-name="Groupe 93" transform="translate(502.276 760.949)">
              <path id="Tracé_159" data-name="Tracé 159" d="M407.9,3633.194c1.614-14.857,2.194-30.256-2.712-44.372s-16.353-26.785-31.081-29.318c-12.1-2.082-24.787,2.738-36.671-.35-17.821-4.631-26.373-24.19-34.793-40.563s-24.245-33.741-41.955-28.7c-16.228,4.616-21.557,24.442-24.88,40.983s-10.873,36.309-27.637,38.218c-10.461,1.191-19.947-5.455-29.369-10.153s-22.337-6.979-29.281.935c-4.71,5.369-4.664,13.338-7.557,19.867-5.555,12.536-20.753,17.582-34.432,18.512s-27.91-.77-40.723,4.11c-22.6,8.61-33.35,39.343-21.041,60.162h363.29Z" transform="translate(-40.606 -3489)" fill="url(#linear-gradient-13)"/>
            </g>
          </g>
          <g id="Groupe_95" data-name="Groupe 95" transform="translate(462.777 962.139)">
            <path id="Tracé_160" data-name="Tracé 160" d="M1140.1,3935.77c-8.4-8.859-24.02-11.616-32.74-3.073,2.514-18.67,2.422-41.152-12.948-52.046-9.585-6.793-23.172-6.587-33.368-.75s-17.038,16.61-19.581,28.081a24.374,24.374,0,0,0-39.549-20.563c1.809-10.59,1.707-21.863-2.8-31.615s-14.1-17.618-24.844-17.8c-11.3-.192-21.39,7.987-26.8,17.906s-7.03,21.393-8.563,32.585c-8.174-16.013-32.968-17.654-46.371-5.669s-16.174,32.595-11.3,49.9c-3.118-10.1-19-10.108-25.956-2.146s-7.376,19.534-7.329,30.1c.013,3.033.087,6.248,1.717,8.807,2.943,4.621,9.393,5.081,14.872,5.042L1038.1,3973.3c28.917-.206,57.863-.049,86.774-.617C1149.5,3972.195,1160.534,3957.32,1140.1,3935.77Z" transform="translate(-847.954 -3838)" fill="#019961"/>
          </g>
          <path id="Tracé_161" data-name="Tracé 161" d="M366.319,4060.3s117.025-19.023,164.872,51.883c41.662,61.74-16.718,92.813-66.871,53.613s-92.236-40.353-130.284-25.942S268.894,4082.779,366.319,4060.3Z" transform="translate(536.446 -2969.026)" fill="url(#linear-gradient-14)"/>
          <path id="Tracé_162" data-name="Tracé 162" d="M1435.382,3997s-.576,33.436,38.048,63.412,38.624,54.766,0,60.53S1363.9,4014.871,1435.382,3997Z" transform="translate(-1057.787 -2943.201)" fill="url(#linear-gradient-15)"/>
          <path id="Path_54" data-name="Path 54" d="M1266.364,3504.2s16-10.231,24.649-19.215a390.4,390.4,0,0,1,40.694,46.189l-18.436,15.465s15.66,3,28.22-1.773a90.7,90.7,0,0,1,7.865,14.373c5.005,11.839,9.5,27.141,4.766,36.241-2.651,5.1-8.194,8.25-18.17,7.753a171.061,171.061,0,0,1-35.037-5.626,178.257,178.257,0,0,0-3.4-22.45,95.02,95.02,0,0,1-7.346,19.3c-5.963-1.926-11.839-4.1-17.581-6.48a288.8,288.8,0,0,1-41.428-21.548,193.768,193.768,0,0,0,14.887-28.552c-4.454,4.9-16.371,12.884-27.944,20.081q-9.387-6.371-18.466-13.128a377.108,377.108,0,0,1-33.823-27.968c8.07-14.343,15.566-31.239,15.566-31.239-4.978,6.736-15.957,15.361-25,21.867q-5.011-5.223-9.652-10.788a228.162,228.162,0,0,1-14.085-18.869c9.373-8.051,16.451-20.318,16.451-20.318-4.282,2.318-15.029,5.654-24.123,8.264-11.144-18.48-20.483-38.167-29.724-57.707l-.032-.067c21.191.771,42.489,1.564,63.35,5.208,1.475,9.5,2.783,20.685,1.5,24.379a178,178,0,0,0,12.166-21.546A222.858,222.858,0,0,1,1216.9,3432.2c1.934,10.614,3.526,23.485,1.354,29.4,0,0,8.866-12.49,13.12-21.8a290.7,290.7,0,0,1,47.738,34.229C1275.851,3484.451,1270.783,3498.95,1266.364,3504.2Z" transform="translate(-733.074 -2693.746)" fill="#019961"/>
          <path id="Path_54-2" data-name="Path 54" d="M1080.009,3507.948s11.442,5.624,19.607,7.459a262.079,262.079,0,0,1-12.346,39.43l-15.292-5.2s3.729,10.032,10.839,15.579a60.811,60.811,0,0,1-5.511,9.516c-5.053,6.993-12.272,14.9-19.141,15.348-3.848.254-7.587-1.831-10.774-7.729a114.815,114.815,0,0,1-8.964-22.066,119.858,119.858,0,0,0,11.7-9.765,63.83,63.83,0,0,1-13.631,2.5c-.97-4.092-1.768-8.22-2.4-12.345a193.882,193.882,0,0,1-2.051-31.276,130.046,130.046,0,0,0,21.568-1.393c-4.362-.852-13.093-4.912-21.251-9.049q.39-7.6,1.107-15.167a253.218,253.218,0,0,1,4.28-29.146c11.04-.359,23.347-1.938,23.347-1.938-5.6-.513-14.37-3.812-21.251-6.736q1.254-4.694,2.833-9.294a153.122,153.122,0,0,1,5.927-14.652c7.883,2.578,17.387,2.37,17.387,2.37-2.821-1.65-8.475-6.658-13.139-10.969,6.728-12.827,14.776-25.039,22.774-37.144l.028-.042c6.932,12.43,13.89,24.929,19.059,38.171-4.937,4.152-10.9,8.795-13.469,9.348a119.544,119.544,0,0,0,16.6-.518,149.613,149.613,0,0,1,6.272,31.255c-5.419,4.8-12.252,10.2-16.4,11.011,0,0,10.254.741,17.074-.056a195.132,195.132,0,0,1-3.03,39.312C1094.645,3506.519,1084.56,3508.656,1080.009,3507.948Z" transform="translate(-445.365 -2680.294)" fill="#019961"/>
          <path id="Tracé_163" data-name="Tracé 163" d="M1417.788,2936.9s48.424,13.259,56.495,54.765-26.518,50.73-56.495,24.212S1371.67,2924.8,1417.788,2936.9Z" transform="translate(-1021.746 -2493.591)" fill="url(#linear-gradient-16)"/>
          <g id="Groupe_96" data-name="Groupe 96" transform="translate(370.688 552.841)">
            <path id="Tracé_164" data-name="Tracé 164" d="M1322.464,3416.232c27.312,20.719,71.541,1.844,96.04-19.364a25.886,25.886,0,0,0,8.593-14.134c5.574-26.575-36.415-33.124-37.642-56.94-.538-10.422,7.315-19.066,13.105-27.751,13.215-19.832,16.957-44.907,14.159-68.576s-11.665-46.2-22-67.683c-8.444-17.572-23.533-37.435-42.564-33.208-12.229,2.711-20.076,14.875-23.63,26.889-4.891,16.51-4.188,34.25-.9,51.16,1.452,7.486,3.4,15.263,1.385,22.624-5.158,18.836-31.584,23.094-41.171,40.114-9.759,17.322,1.887,38.417,12.661,55.127,9.219,14.3,14.88,23.169,8.837,35.387a26.908,26.908,0,0,1-6.692,8.376C1296.833,3373.257,1285.952,3388.539,1322.464,3416.232Z" transform="translate(-1284.177 -3128)" fill-rule="evenodd" fill="url(#linear-gradient-17)"/>
            <path id="Tracé_165" data-name="Tracé 165" d="M1411.357,3213.774c.041,5.913,6,329.863,6,329.863l-23.478,2.058Z" transform="translate(-1337.173 -3164.327)" fill-rule="evenodd" fill="url(#linear-gradient-18)"/>
          </g>
          <path id="Tracé_166" data-name="Tracé 166" d="M74.69,3028.507c0-.121-.009-.239-.009-.36a30.983,30.983,0,0,1,50.383-24.166,42.8,42.8,0,0,1,43.446-23.54,30.041,30.041,0,0,1,39.566-14.878,49.883,49.883,0,0,1,93.6,31.753,31.751,31.751,0,0,1,25.846,31.19Z" transform="translate(883.844 -2494.69)" fill="url(#linear-gradient-19)"/>
          <circle id="Ellipse_56" data-name="Ellipse 56" cx="36.606" cy="36.606" r="36.606" transform="translate(1070.52 333.78)" fill="#019961"/>
          <circle id="Ellipse_57" data-name="Ellipse 57" cx="17.871" cy="17.871" r="17.871" transform="translate(1049.19 201.767)" fill="#019961"/>
          <circle id="Ellipse_58" data-name="Ellipse 58" cx="33.724" cy="33.724" r="33.724" transform="translate(764.987 34.589)" fill="#019961"/>
          <circle id="Ellipse_59" data-name="Ellipse 59" cx="15.277" cy="15.277" r="15.277" transform="translate(556.302 602.418)" fill="#019961"/>
          <circle id="Ellipse_60" data-name="Ellipse 60" cx="14.7" cy="14.7" r="14.7" transform="translate(873.365 55.342)" fill="#019961"/>
          <path id="Tracé_167" data-name="Tracé 167" d="M-125.49,3966.195c8.5,1.246,17.444,2.474,26.606,3.418.429.045.857.086,1.286.131,7.52.751,15.171,1.305,22.827,1.512.466.016.929.025,1.391.034a189.321,189.321,0,0,0,31.025-1.643c.435-.063.867-.127,1.3-.194a116.182,116.182,0,0,0,25.428-6.694c19.586-7.789,36.312-37.295,8.53-47.545-7.271-2.682-17.67,5.546-23.462,0-6.371-6.093,1.811-12.216,3.769-18.086,4.991-14.973-5.247-31.8-20.581-34.943a30.108,30.108,0,0,0-6.51-.663c-18.331.287-13.71,17.308-25.085,24.194-6.779,4.1-14.351-2.388-21.007-3.685-8.357-1.629-18.829.982-25.072,6.9-9.176,8.712.5,18.957-2.429,28.822-4.183,14.1-22.528,5.923-30.934,13.972C-179.591,3952.023-139.662,3964.114-125.49,3966.195Z" transform="translate(1341.656 -2885.823)" fill="url(#linear-gradient-20)"/>
        </g>
      </g>
    </g>
  </g>
</svg>
