<svg xmlns="http://www.w3.org/2000/svg" width="376.757" height="406.305" viewBox="0 0 376.757 406.305">
  <path id="Tracé_76" data-name="Tracé 76" d="M1950.177,778.6c2.854-1.32,5.745-2.568,8.553-3.974,3.747-1.875,7.465-3.813,11.117-5.849a23.707,23.707,0,0,0,3.964-2.949c.929-.814.86-1.646-.109-2.224-2.289-1.366-2.854-3.573-3.067-5.935a18.59,18.59,0,0,1,1.494-8.2A58.3,58.3,0,0,1,1983.8,730.43c2.591-2.821,5.409-5.495,8.129-8.23,3.511-3.531,7.127-6.986,10.506-10.6a57.387,57.387,0,0,0,10.23-14.734,38.015,38.015,0,0,0,3.7-21.328,23.849,23.849,0,0,0-.883-4.01,11.874,11.874,0,0,0-1.4-3c-2.414-3.659-6.595-4.24-11.295-1.652a27.111,27.111,0,0,0-7.005,5.537q-3.251,3.577-6.244,7.321a132.992,132.992,0,0,1-10.45,12.057,48.46,48.46,0,0,1-4.138,3.659,10.991,10.991,0,0,1-2.746,1.442,1.548,1.548,0,0,1-2.171-.729,9.63,9.63,0,0,1-.607-2.736,18,18,0,0,1,.979-6.628c.811-2.555,1.7-5.107,2.7-7.636,3.28-8.293,6.512-16.589,9.209-24.971a134.938,134.938,0,0,0,5.646-24.189c.867-6.762,1.071-13.443-.289-19.877a33.182,33.182,0,0,0-10.112-18.064,20.111,20.111,0,0,0-4.089-2.946c-4.312-2.309-9.262-1.36-13.282,2.414a14.406,14.406,0,0,0-3.478,4.756,50.416,50.416,0,0,0-2.562,6.815c-1.054,3.981-1.855,7.978-2.7,11.971-1.008,4.792-1.8,9.594-2.956,14.379-.88,3.629-2.148,7.242-3.343,10.848a26.436,26.436,0,0,1-1.859,4.142,14.606,14.606,0,0,1-2.03,2.884,5.268,5.268,0,0,1-6.3,1.484,7.214,7.214,0,0,1-3.334-3.222,25.527,25.527,0,0,1-2.8-8.2,46.47,46.47,0,0,1-.479-13.3c.463-4.253,1.1-8.513,1.7-12.773.89-6.388,2.017-12.789,2.677-19.161a115.634,115.634,0,0,0-2.128-37.934c-1.455-6.365-3.541-12.48-7.173-17.942a37.634,37.634,0,0,0-9.482-10.218,19.423,19.423,0,0,0-6.1-3.054c-4.608-1.274-8.8.22-11.811,4.211a16.407,16.407,0,0,0-2.837,5.885c-.71,2.834-1.3,5.675-1.843,8.516-.46,2.4-.729,4.8-1.176,7.189a34.32,34.32,0,0,1-3.356,10.27,23.405,23.405,0,0,1-2.812,4.115,7.718,7.718,0,0,1-7.2,2.621,11.293,11.293,0,0,1-4.224-1.468,18.176,18.176,0,0,1-6.178-5.915,31.51,31.51,0,0,1-4.474-10.533c-1.484-6.421-2.752-12.9-4.125-19.358a167,167,0,0,0-5.8-20.977c-1.392-3.935-2.792-7.869-4.417-11.7-5.613-13.252-13.177-25.339-24.3-35.244a52.509,52.509,0,0,0-11.144-7.767,34.34,34.34,0,0,0-7.281-2.808,23.123,23.123,0,0,0-6.408-.732,17.386,17.386,0,0,0-14.589,8.326,19.889,19.889,0,0,0-2.657,7.6,30.037,30.037,0,0,0,.778,12.431c1.416,5.117,3.656,9.9,5.633,14.783,1.117,2.759,2.42,5.439,3.554,8.194a39.724,39.724,0,0,1,2.985,12.444,22.909,22.909,0,0,1-.072,4.47,18.137,18.137,0,0,1-1.064,4.237c-1.646,4.256-5.124,6.91-9.916,8.234a19.384,19.384,0,0,1-8.418.509,46.079,46.079,0,0,1-6.7-1.57c-3.215-1.054-6.312-2.315-9.436-3.527A88.97,88.97,0,0,0,1745.2,521a79.6,79.6,0,0,0-8.066-1.238,16.23,16.23,0,0,0-5.738.476,7.259,7.259,0,0,0-5.471,4.746,10.067,10.067,0,0,0,.108,6.982,33.708,33.708,0,0,0,5.209,9.052c5.958,7.794,13.827,13.856,22.816,18.888a177.876,177.876,0,0,0,25.063,11.462c4.638,1.714,9.2,3.557,13.712,5.465a43.925,43.925,0,0,1,9.4,5.367,28.944,28.944,0,0,1,3.681,3.33,5.254,5.254,0,0,1,1.544,3.711c-.01,1.071-.588,1.737-1.839,1.934a14.48,14.48,0,0,1-3.021.184c-2.276-.131-4.552-.292-6.779-.585-3.879-.506-7.725-1.113-11.583-1.685a84.47,84.47,0,0,0-16.284-1.054,37.274,37.274,0,0,0-14.432,3.028,13.051,13.051,0,0,0-7.229,7.327,14.478,14.478,0,0,0-.936,6.867,21.07,21.07,0,0,0,6.467,13.351,39.506,39.506,0,0,0,8.47,6.355,84.062,84.062,0,0,0,17.111,7.193c3.974,1.222,8.01,2.325,12.007,3.5,6.723,1.981,13.465,3.918,20.139,5.984a72.214,72.214,0,0,1,14.527,6.171c1.409.808,2.772,1.675,4.086,2.588a16.015,16.015,0,0,1,2.17,1.9c.854.867,1.905,1.823,1.035,3.186-.854,1.33-2.506,1.353-3.9,1.419a35.767,35.767,0,0,1-4.792-.082c-3.048-.266-6.066-.624-9.084-.979-5.064-.6-10.1-1.3-15.184-1.813a83.669,83.669,0,0,0-14.713-.036,32.837,32.837,0,0,0-9.068,1.846,31.87,31.87,0,0,0-5.074,2.43,12.978,12.978,0,0,0-5.787,6.986,15.353,15.353,0,0,0,1.623,14.29,26.137,26.137,0,0,0,8.854,8.053,80.257,80.257,0,0,0,20.54,8.382c10.142,2.647,20.277,5.314,30.351,8.1,4.391,1.215,8.664,2.67,12.9,4.158a38.087,38.087,0,0,1,8.828,4.368,7.787,7.787,0,0,1,2.765,2.719,1.721,1.721,0,0,1-.874,2.581,17.539,17.539,0,0,1-4.289,1.826c-2.615.624-5.265.989-7.9,1.406-4.867.769-9.745,1.422-14.608,2.273a41.208,41.208,0,0,0-11.252,3.7,19.76,19.76,0,0,0-5.048,3.586,12.025,12.025,0,0,0-3.944,8.017,13.279,13.279,0,0,0,2.844,9.147,45.916,45.916,0,0,0,8.957,8.707,30.315,30.315,0,0,0,10.457,4.818,78.066,78.066,0,0,0,16.405,2.582c5.856.286,11.715.591,17.624.617,10.845.049,21.486.851,32.051,1.954a66.673,66.673,0,0,1,29.625,10c3.987,2.565,8.093,5,12.146,7.5.076.049.151.1.223.148a5.17,5.17,0,0,0,5.57.21c4.158-1.994,8.365-3.882,12.553-5.817Z" transform="translate(-1781.326 159.947) rotate(-17)" fill="#b3d553"/>
</svg>
