<svg xmlns="http://www.w3.org/2000/svg" width="901.869" height="631.773" viewBox="0 0 901.869 631.773">
  <g id="Groupe_56" data-name="Groupe 56" transform="matrix(-0.951, -0.309, 0.309, -0.951, 960.346, 5210.014)">
    <g id="Groupe_55" data-name="Groupe 55" transform="translate(1870 4545.001)">
      <path id="Tracé_78" data-name="Tracé 78" d="M1334.664,738.637c-23,17.927-54.861,15.5-54.861,15.5s5.432-31.489,28.437-49.412,54.865-15.5,54.865-15.5S1357.669,720.718,1334.664,738.637Z" transform="translate(-1076.313 -689.119)" fill="#5fcd59"/>
      <path id="Tracé_86" data-name="Tracé 86" d="M1334.664,738.637c-23,17.927-54.861,15.5-54.861,15.5s5.432-31.489,28.437-49.412,54.865-15.5,54.865-15.5S1357.669,720.718,1334.664,738.637Z" transform="matrix(0.695, -0.719, 0.719, 0.695, -1558.274, 580.863)" fill="#5fcd59"/>
      <path id="Tracé_79" data-name="Tracé 79" d="M1316.623,755.187c.036,18.612-13.654,33.726-13.654,33.726s-13.749-15.062-13.784-33.674,13.653-33.725,13.653-33.725S1316.587,736.575,1316.623,755.187Z" transform="translate(-887.198 -602.909)" fill="#44b747"/>
      <path id="Tracé_85" data-name="Tracé 85" d="M1316.623,755.187c.036,18.612-13.654,33.726-13.654,33.726s-13.749-15.062-13.784-33.674,13.653-33.725,13.653-33.725S1316.587,736.575,1316.623,755.187Z" transform="translate(749.755 -1170.513) rotate(106)" fill="#44b747"/>
      <path id="Tracé_80" data-name="Tracé 80" d="M1282.084,740.8c-22.3-3.765-37.594-23.252-37.594-23.252s20.852-13.383,43.145-9.614,37.589,23.252,37.589,23.252S1304.377,744.568,1282.084,740.8Z" transform="translate(-1181.525 -635.052)" fill="#9dea59"/>
      <path id="Tracé_88" data-name="Tracé 88" d="M1282.084,740.8c-22.3-3.765-37.594-23.252-37.594-23.252s20.852-13.383,43.145-9.614,37.589,23.252,37.589,23.252S1304.377,744.568,1282.084,740.8Z" transform="translate(-995.588 -177.3) rotate(-34)" fill="#9dea59"/>
      <path id="Tracé_84" data-name="Tracé 84" d="M1282.084,740.8c-22.3-3.765-37.594-23.252-37.594-23.252s20.852-13.383,43.145-9.614,37.589,23.252,37.589,23.252S1304.377,744.568,1282.084,740.8Z" transform="matrix(-0.53, 0.848, -0.848, -0.53, 1695.031, -1133.384)" fill="#9dea59"/>
      <path id="Tracé_83" data-name="Tracé 83" d="M1282.084,740.8c-22.3-3.765-37.594-23.252-37.594-23.252s20.852-13.383,43.145-9.614,37.589,23.252,37.589,23.252S1304.377,744.568,1282.084,740.8Z" transform="translate(-758.274 -859.846)" fill="#9dea59"/>
      <path id="Tracé_81" data-name="Tracé 81" d="M1279.7,765.889c-5.814,13-20.108,19.252-20.108,19.252s-4.875-14.823.939-27.824,20.108-19.257,20.108-19.257S1285.512,752.888,1279.7,765.889Z" transform="translate(-1142.225 -543.298)" fill="#9dea59"/>
      <path id="Tracé_87" data-name="Tracé 87" d="M1279.7,765.889c-5.814,13-20.108,19.252-20.108,19.252s-4.875-14.823.939-27.824,20.108-19.257,20.108-19.257S1285.512,752.888,1279.7,765.889Z" transform="translate(-735.946 867.433) rotate(-68)" fill="#9dea59"/>
      <path id="Tracé_82" data-name="Tracé 82" d="M1256.493,785.51c-13,5.822-27.824.963-27.824.963s6.244-14.3,19.241-20.124,27.824-.959,27.824-.959S1269.49,779.689,1256.493,785.51Z" transform="translate(-1404.347 -487.216)" fill="#5fcd59"/>
    </g>
  </g>
</svg>
