<svg xmlns="http://www.w3.org/2000/svg" xmlns:xlink="http://www.w3.org/1999/xlink" width="124.006" height="155.001" viewBox="0 0 124.006 155.001">
  <defs>
    <linearGradient id="linear-gradient" x1="0.5" y1="-0.22" x2="0.5" y2="1.524" gradientUnits="objectBoundingBox">
      <stop offset="0" stop-color="#b5d653"/>
      <stop offset="1" stop-color="#31a95d"/>
    </linearGradient>
  </defs>
  <g id="Groupe_62" data-name="Groupe 62" transform="translate(-602 -1246)">
    <g id="Groupe_61" data-name="Groupe 61" transform="translate(602 1246)">
      <path id="Tracé_100" data-name="Tracé 100" d="M183.834,95.5h-8.092a3.221,3.221,0,0,0-3.217,3.217V105.6a23.933,23.933,0,0,0-3.861,1.6l-4.863-4.863a3.222,3.222,0,0,0-4.55,0l-5.722,5.722a3.218,3.218,0,0,0,0,4.551l4.862,4.862a23.9,23.9,0,0,0-1.6,3.861h-6.877a3.221,3.221,0,0,0-3.217,3.218v8.092a3.221,3.221,0,0,0,3.217,3.217h6.877a23.929,23.929,0,0,0,1.6,3.861l-4.862,4.862a3.221,3.221,0,0,0,0,4.55l5.722,5.722a3.221,3.221,0,0,0,4.55,0l4.862-4.862a23.919,23.919,0,0,0,3.861,1.6v6.877a3.221,3.221,0,0,0,3.217,3.217h8.092a3.221,3.221,0,0,0,3.218-3.217V151.59a23.927,23.927,0,0,0,3.861-1.6l4.862,4.862a3.221,3.221,0,0,0,4.551,0l5.722-5.722a3.218,3.218,0,0,0,0-4.55l-4.862-4.862a23.912,23.912,0,0,0,1.6-3.861h6.877a3.221,3.221,0,0,0,3.218-3.217v-8.092a3.221,3.221,0,0,0-3.218-3.218h-6.876a23.91,23.91,0,0,0-1.6-3.861l4.862-4.862a3.218,3.218,0,0,0,0-4.55l-5.722-5.722a3.222,3.222,0,0,0-4.55,0l-4.862,4.862a23.913,23.913,0,0,0-3.861-1.6V98.722A3.222,3.222,0,0,0,183.834,95.5Zm6.263,16.451a2.272,2.272,0,0,0,2.8-.323l5.15-5.15,3.85,3.85-5.15,5.15a2.27,2.27,0,0,0-.323,2.8,19.424,19.424,0,0,1,2.415,5.833,2.271,2.271,0,0,0,2.211,1.753h7.284v5.445h-7.284a2.271,2.271,0,0,0-2.211,1.753,19.411,19.411,0,0,1-2.415,5.833,2.271,2.271,0,0,0,.323,2.8l5.15,5.15-3.85,3.85-5.15-5.15a2.27,2.27,0,0,0-2.8-.323,19.423,19.423,0,0,1-5.833,2.415,2.27,2.27,0,0,0-1.753,2.211v7.284h-5.445v-7.284a2.271,2.271,0,0,0-1.753-2.211,19.413,19.413,0,0,1-5.833-2.415,2.271,2.271,0,0,0-2.8.323l-5.15,5.15-3.85-3.85,5.15-5.15a2.271,2.271,0,0,0,.323-2.8,19.422,19.422,0,0,1-2.415-5.833,2.271,2.271,0,0,0-2.211-1.753h-7.284v-5.445h7.284a2.271,2.271,0,0,0,2.211-1.753,19.422,19.422,0,0,1,2.415-5.833,2.271,2.271,0,0,0-.323-2.8l-5.15-5.15,3.85-3.85,5.15,5.15a2.27,2.27,0,0,0,2.8.323,19.416,19.416,0,0,1,5.833-2.415,2.27,2.27,0,0,0,1.753-2.211v-7.284h5.445v7.284a2.271,2.271,0,0,0,1.753,2.211A19.426,19.426,0,0,1,190.1,111.956Z" transform="translate(-117.785 -66.592)" fill="url(#linear-gradient)"/>
      <path id="Tracé_101" data-name="Tracé 101" d="M215.819,176.792a12.164,12.164,0,1,0,12.164-12.164A12.178,12.178,0,0,0,215.819,176.792Zm19.787,0a7.623,7.623,0,1,1-7.623-7.623A7.632,7.632,0,0,1,235.606,176.792Z" transform="translate(-165.98 -114.789)" fill="url(#linear-gradient)"/>
      <path id="Tracé_102" data-name="Tracé 102" d="M60.994,197.308H53.462a2.271,2.271,0,1,0,0,4.541h7.532a2.271,2.271,0,1,0,0-4.541Z" transform="translate(-51.191 -137.576)" fill="url(#linear-gradient)"/>
      <path id="Tracé_103" data-name="Tracé 103" d="M430.729,197.308H423.2a2.271,2.271,0,1,0,0,4.541h7.532a2.271,2.271,0,1,0,0-4.541Z" transform="translate(-308.994 -137.576)" fill="url(#linear-gradient)"/>
      <path id="Tracé_104" data-name="Tracé 104" d="M114.973,319.9l-5.326,5.327a2.27,2.27,0,1,0,3.211,3.211l5.326-5.326a2.27,2.27,0,1,0-3.211-3.211Z" transform="translate(-91.486 -222.589)" fill="url(#linear-gradient)"/>
      <path id="Tracé_105" data-name="Tracé 105" d="M374.3,66.993l5.326-5.326a2.27,2.27,0,1,0-3.211-3.211l-5.326,5.326a2.27,2.27,0,1,0,3.211,3.211Z" transform="translate(-273.78 -40.295)" fill="url(#linear-gradient)"/>
      <path id="Tracé_106" data-name="Tracé 106" d="M250.771,12.074A2.27,2.27,0,0,0,253.041,9.8V2.271a2.271,2.271,0,0,0-4.541,0V9.8A2.27,2.27,0,0,0,250.771,12.074Z" transform="translate(-188.768)" fill="url(#linear-gradient)"/>
      <path id="Tracé_107" data-name="Tracé 107" d="M374.3,319.9a2.271,2.271,0,1,0-3.211,3.211l5.326,5.326a2.27,2.27,0,1,0,3.211-3.211Z" transform="translate(-273.78 -222.589)" fill="url(#linear-gradient)"/>
      <path id="Tracé_108" data-name="Tracé 108" d="M114.973,66.993a2.27,2.27,0,0,0,3.211-3.211l-5.326-5.326a2.27,2.27,0,1,0-3.211,3.211Z" transform="translate(-91.486 -40.295)" fill="url(#linear-gradient)"/>
      <path id="Tracé_109" data-name="Tracé 109" d="M268.545,54.563A2.271,2.271,0,1,0,268,59.071,40.9,40.9,0,0,1,303.76,95a2.271,2.271,0,0,0,2.252,2.007,2.346,2.346,0,0,0,.267-.015,2.271,2.271,0,0,0,1.991-2.52A45.664,45.664,0,0,0,268.545,54.563Z" transform="translate(-200.969 -38.033)" fill="url(#linear-gradient)"/>
      <path id="Tracé_110" data-name="Tracé 110" d="M194.221,103.088a2.269,2.269,0,0,0-2.538,1.967,40.916,40.916,0,0,1-18.934,29.6,15.276,15.276,0,0,0-7.219,12.993v9.345H136.352V147.44a14.952,14.952,0,0,0-7-12.647,41.076,41.076,0,0,1,16.566-75.712,2.271,2.271,0,0,0-.559-4.507,45.613,45.613,0,0,0-18.4,84.081,10.38,10.38,0,0,1,4.844,8.785v9.882a5.909,5.909,0,0,0-3.973,5.573v3.237a5.869,5.869,0,0,0,1.26,3.633,5.868,5.868,0,0,0-1.26,3.633v3.237a5.91,5.91,0,0,0,5.9,5.9h7.138v5.133a5.376,5.376,0,0,0,5.37,5.37h9.384a5.376,5.376,0,0,0,5.37-5.37v-5.133h7.139a5.911,5.911,0,0,0,5.9-5.9V173.4a5.868,5.868,0,0,0-1.26-3.633,5.868,5.868,0,0,0,1.26-3.633V162.9a5.909,5.909,0,0,0-3.973-5.573v-9.675a10.758,10.758,0,0,1,5.092-9.146,45.44,45.44,0,0,0,21.024-32.874A2.269,2.269,0,0,0,194.221,103.088Zm-26.079,58.444h0a1.381,1.381,0,0,1,1.362,1.362v3.237a1.381,1.381,0,0,1-1.362,1.362h-34.4a1.381,1.381,0,0,1-1.362-1.362v-3.237a1.381,1.381,0,0,1,1.362-1.362h34.4Zm-11.68,26.139a.84.84,0,0,1-.829.829h-9.384a.84.84,0,0,1-.829-.829v-5.133h11.041v5.133ZM169.5,176.634A1.381,1.381,0,0,1,168.141,178h-34.4a1.381,1.381,0,0,1-1.362-1.362V173.4a1.381,1.381,0,0,1,1.362-1.362h34.4A1.381,1.381,0,0,1,169.5,173.4Z" transform="translate(-88.938 -38.04)" fill="url(#linear-gradient)"/>
    </g>
  </g>
</svg>
