<svg xmlns="http://www.w3.org/2000/svg" xmlns:xlink="http://www.w3.org/1999/xlink" width="117" height="144.242" viewBox="0 0 117 144.242">
  <defs>
    <linearGradient id="linear-gradient" x1="0.5" x2="0.5" y2="1" gradientUnits="objectBoundingBox">
      <stop offset="0" stop-color="#b5d653"/>
      <stop offset="1" stop-color="#31a95d"/>
    </linearGradient>
  </defs>
  <g id="Groupe_64" data-name="Groupe 64" transform="translate(-1263 -1281.364)">
    <g id="Groupe_63" data-name="Groupe 63" transform="translate(1263 1281.364)">
      <path id="Tracé_111" data-name="Tracé 111" d="M618.256,404.453a2.114,2.114,0,0,0,2.078,1.746,2.3,2.3,0,0,0,.37-.032l1.257-.222.222,1.256a2.113,2.113,0,1,0,4.161-.734l-.222-1.256,1.258-.223a2.113,2.113,0,1,0-.734-4.161l-1.258.222-.222-1.256a2.113,2.113,0,1,0-4.161.734l.222,1.256-1.258.223a2.112,2.112,0,0,0-1.714,2.448Zm53.376-46.339L619.4,348.9a15.081,15.081,0,0,0-17.451,12.218l-.251,1.423H598.8a15.081,15.081,0,0,0-15.062,15.063v14.283l-4.211.742a15.079,15.079,0,0,0-12.218,17.449l9.3,52.732a2.113,2.113,0,0,0,4.163-.734l-9.3-52.732a10.835,10.835,0,0,1,8.791-12.554l52.236-9.21a10.847,10.847,0,0,1,12.554,8.791l12.41,70.384a10.849,10.849,0,0,1-8.789,12.554l-52.237,9.21a10.848,10.848,0,0,1-12.554-8.791l-1.309-7.419a2.113,2.113,0,0,0-4.161.734l1.309,7.419a15.053,15.053,0,0,0,17.449,12.219l52.238-9.21a15.08,15.08,0,0,0,12.218-17.449l-.85-4.82a15.169,15.169,0,0,0,4.672-5.687,14.922,14.922,0,0,0,5.992-9.57l12.409-70.385a15.079,15.079,0,0,0-12.218-17.449Zm8.057,16.716-12.41,70.384a10.974,10.974,0,0,1-.37,1.48V393.027a2.113,2.113,0,1,0-4.226,0v56.051a10.882,10.882,0,0,1-2.771,7.221l-10.7-60.659a15.084,15.084,0,0,0-17.451-12.218l-43.8,7.724V377.609A10.85,10.85,0,0,1,598.8,366.771h53.043a10.85,10.85,0,0,1,10.837,10.837v5.183a2.113,2.113,0,1,0,4.226,0v-5.183a15.081,15.081,0,0,0-15.063-15.063H605.986l.122-.69a10.848,10.848,0,0,1,12.554-8.791l52.236,9.21a10.85,10.85,0,0,1,8.79,12.554Zm-54.08,81.024a2.114,2.114,0,0,0-2.449-1.714l-31.2,5.5a2.113,2.113,0,1,0,.734,4.161l31.2-5.5a2.113,2.113,0,0,0,1.715-2.448Zm14.337-82.54a2.114,2.114,0,0,0-2.113,2.113v2.427a2.113,2.113,0,0,0,4.226,0v-2.427a2.113,2.113,0,0,0-2.113-2.113Zm-29.242,0a2.113,2.113,0,0,0-2.113,2.113v2.427a2.113,2.113,0,0,0,4.226,0v-2.427a2.113,2.113,0,0,0-2.113-2.113Zm19.863,3.055a2.112,2.112,0,0,0-2.98.206,3,3,0,0,1-4.524,0,2.113,2.113,0,1,0-3.186,2.776,7.221,7.221,0,0,0,10.895,0,2.112,2.112,0,0,0-.205-2.982Zm-11.575,93.281a2.149,2.149,0,0,0,.37-.032l14.711-2.594a2.113,2.113,0,1,0-.734-4.161l-14.711,2.594a2.113,2.113,0,0,0,.364,4.193Zm-11.153-69.2a3.762,3.762,0,0,0-3.027,2.889l-3.281,14.607a.151.151,0,0,0-.006.025l-1.536,6.836a2.113,2.113,0,1,0,4.123.926l1.228-5.467,11.624-2.05,3.024,4.717a2.113,2.113,0,1,0,3.558-2.28l-3.783-5.9a.209.209,0,0,1-.012-.019l-8.082-12.6a3.762,3.762,0,0,0-3.831-1.68Zm-1.5,15.348L608.7,405.32l5.794,9.04Zm33.066,14.446-13.172,2.323a2.114,2.114,0,0,0,.364,4.2,2.251,2.251,0,0,0,.37-.032l13.172-2.323a2.113,2.113,0,1,0-.734-4.163Zm-52.762,11.45a2.113,2.113,0,0,0,2.449,1.714l31.2-5.5a2.113,2.113,0,0,0-.734-4.163l-31.2,5.5a2.113,2.113,0,0,0-1.715,2.448Zm58.808,10.663a2.113,2.113,0,0,0-2.447-1.714l-13.174,2.323a2.114,2.114,0,0,0,.365,4.2,2.307,2.307,0,0,0,.37-.032L643.74,454.8a2.115,2.115,0,0,0,1.714-2.449Zm-43.6-.684a2.113,2.113,0,0,0-.734-4.161l-10.965,1.934a2.113,2.113,0,1,0,.734,4.161Zm39.35-11.229L607.8,446.333a2.113,2.113,0,1,0,.734,4.161l33.411-5.891a2.113,2.113,0,0,0-.734-4.161Zm-29.254,26.191-18.2,3.209a2.113,2.113,0,0,0,.366,4.194,2.087,2.087,0,0,0,.368-.032l18.2-3.209a2.113,2.113,0,0,0-.734-4.161Zm0,0" transform="translate(-567.081 -348.674)" fill="url(#linear-gradient)"/>
    </g>
  </g>
</svg>
