<svg xmlns="http://www.w3.org/2000/svg" xmlns:xlink="http://www.w3.org/1999/xlink" width="563.626" height="570.047" viewBox="0 0 563.626 570.047">
  <defs>
    <linearGradient id="linear-gradient" x1="0.5" y1="0.125" x2="0.5" y2="1.112" gradientUnits="objectBoundingBox">
      <stop offset="0" stop-color="#b5d653"/>
      <stop offset="0.995" stop-color="#019961"/>
    </linearGradient>
  </defs>
  <g id="Groupe_27" data-name="Groupe 27" transform="matrix(0.951, -0.309, 0.309, 0.951, -1347.12, -1087.59)">
    <g id="Groupe_26" data-name="Groupe 26" transform="translate(0 -217.775)">
      <g id="Groupe_25" data-name="Groupe 25" transform="translate(824 1785)">
        <path id="Tracé_66" data-name="Tracé 66" d="M3383.647,558.4a421.818,421.818,0,0,0,37.8-76.336c-14.311-3.908-34.265-13.67-34.265-13.67,8.982,1.725,27.028-3.57,41.768-8.823a323.509,323.509,0,0,0,12.661-67.694c-15.8-4.234-33.686-12.364-33.686-12.364,5.588.969,21.291-3.529,34.537-7.864.33-30.709-3.524-61.374-7.381-91.879l-.088.061c-25.8,17.8-51.79,35.777-75.625,56.053,5.863,12.4,13.156,27,17.477,32.587,0,0-19.214-7.257-32.931-18.787a331.341,331.341,0,0,0-23.706,24.58q-6.877,7.943-13.181,16.339c11.43,11.415,26.344,25.107,37.152,30.656,0,0-25.94-6.773-48.354-14.961a547.123,547.123,0,0,0-32.1,54.955q-7.543,14.578-14.462,29.5c13.01,14.875,27.229,30.06,35.281,35.287,0,0-23.8-5.467-44.346-14.612a418.585,418.585,0,0,0-21.135,64.334c-2.065,8.778-3.8,17.693-5.156,26.683a137.877,137.877,0,0,0,29.335,5.993,258.832,258.832,0,0,1-31.333,10.124,247.841,247.841,0,0,0,.155,51.459c1.625,14.392,7.434,21.589,15.353,24.189,14.128,4.637,34.975-5.374,50.748-15.307a131.612,131.612,0,0,0,18.725-14.622c-9.77-16.856-9.143-39.97-9.143-39.97l26.447,22.758a566,566,0,0,0,56.574-69.054c-14.881-10.265-33.273-30.772-33.273-30.772C3346.037,552.321,3367.974,556.176,3383.647,558.4Z" transform="translate(-2907.485 -261.866)" fill="#019961"/>
        <path id="Tracé_67" data-name="Tracé 67" d="M3153.191,575.553c-4.238-8.383-7.186-17.988-5.054-27.137s10.741-17.243,20.063-16.091c5.944.733,10.835,4.808,16.123,7.62s12.472,4.144,16.771-.024c4.864-4.714,2.692-12.975-.886-18.726-14.842-23.857-47.7-36.323-52.843-63.943-.973-5.231-.646-11.086,2.7-15.221,5.213-6.437,15.085-6.031,23.158-4.172s16.877,4.521,24.3.839c8.438-4.187,11.361-15.5,8.6-24.507s-9.841-16.007-17.267-21.8-15.539-10.874-21.754-17.954c-3.685-4.2-6.708-9.271-7.105-14.84s2.392-11.609,7.555-13.733c7.33-3.014,18.436,1.334,22-5.746,2.633-5.237-2.3-10.862-6.082-15.337-8.007-9.46-12.321-22.8-8.426-34.564a28.527,28.527,0,0,1,52.955-3.05c5.225,11.252,2.759,24.926,8.013,36.166,4.915,1.765,9.049-3.686,13.126-6.946,10.079-8.06,26.425-2.3,32.975,8.821s5.467,25.181,1.947,37.6-9.249,24.215-11.556,36.91c-.709,3.9-.047,9.314,3.88,9.851,1.895.259,3.675-.876,5.192-2.038,6.614-5.06,12.071-11.588,19.068-16.107s16.494-6.695,23.536-2.25c3.449,2.175,5.868,5.667,7.686,9.316,8.63,17.337,4.991,38.329-2.148,56.33s-17.563,34.743-22.643,53.432c-.906,3.329-1.324,7.591,1.509,9.56a7.064,7.064,0,0,0,5.343.711c10.177-1.918,16.92-12.678,27.1-14.58,7.147-1.336,14.6,2.228,19.332,7.748s7.087,12.713,8.272,19.888c3.555,21.548-2.537,43.5-10.322,63.905-9.013,23.629-20.469,46.5-35.908,66.525h0c-6.221,8.072-30.22,42.161-30.22,42.161s-28.042-31.854-33.423-36.61c-23-20.328-50.61-34.543-74.068-54.289C3172.073,602.652,3160.68,590.367,3153.191,575.553Z" transform="translate(-2969.011 -270.657)" fill="url(#linear-gradient)"/>
        <path id="Tracé_68" data-name="Tracé 68" d="M3281.485,448.545A340.732,340.732,0,0,0,3219.808,418c-3.158,11.562-11.045,27.685-11.045,27.685,1.393-7.257-2.885-21.837-7.129-33.747a261.346,261.346,0,0,0-54.693-10.228c-3.421,12.769-9.988,27.217-9.988,27.217.782-4.518-2.851-17.2-6.353-27.9-24.812-.267-49.588,2.845-74.235,5.964l.049.071c14.384,20.847,28.907,41.842,45.29,61.1,10.023-4.738,21.817-10.629,26.331-14.118,0,0-5.865,15.523-15.179,26.606a267.469,267.469,0,0,0,19.858,19.153q6.42,5.556,13.2,10.65c9.224-9.235,20.285-21.287,24.769-30.017,0,0-5.472,20.959-12.088,39.068a441.739,441.739,0,0,0,44.4,25.938q11.778,6.1,23.835,11.686c12.018-10.513,24.287-22,28.51-28.506,0,0-4.417,19.229-11.806,35.83a338.374,338.374,0,0,0,51.978,17.076c7.092,1.668,14.3,3.069,21.558,4.166a111.256,111.256,0,0,0,4.843-23.7,209.28,209.28,0,0,1,8.181,25.317,200.262,200.262,0,0,0,41.575-.126c11.626-1.313,17.443-6.005,19.543-12.4,3.746-11.417-4.342-28.258-12.367-41a106.649,106.649,0,0,0-11.813-15.128c-13.62,7.893-32.295,7.388-32.295,7.388l18.388-21.367a457.294,457.294,0,0,0-55.792-45.71c-8.294,12.024-24.863,26.883-24.863,26.883C3276.574,478.932,3279.689,461.208,3281.485,448.545Z" transform="translate(-3056.364 -144.87)" fill="#019961"/>
      </g>
    </g>
  </g>
</svg>
