<?xml version="1.0" encoding="UTF-8"?>
<svg id="Calque_2" xmlns="http://www.w3.org/2000/svg"
    xmlns:xlink="http://www.w3.org/1999/xlink" viewBox="0 0 982.03 501.67">
    <defs>
        <style>
            .cls-1 {
                fill: url(#Dégradé_sans_nom_25);
            }

            .cls-1,
            .cls-2,
            .cls-3 {
                stroke-width: 0px;
            }

            .cls-2 {
                fill: #017349;
            }

            .cls-3 {
                fill: #019961;
            }
        </style>
        <linearGradient id="Dégradé_sans_nom_25" x1="-1.54" y1="320.3" x2="213.31" y2="320.3"
            gradientUnits="userSpaceOnUse">
            <stop offset="0" stop-color="#b5d653" />
            <stop offset=".5" stop-color="#019961" />
            <stop offset="1" stop-color="#019961" />
        </linearGradient>
    </defs>
    <g id="ez-bike-logo">
        <g id="ez-bike-logo-2">
            <g id="bike">
                <path class="cls-1"
                    d="M140.81,445.25c-2.39,6.06-5.24,11.97-8.57,17.72-3.41,5.68-7.24,11.24-11.82,16.41-4.53,5.22-9.88,9.98-16.22,14-1.59.99-3.29,1.89-4.97,2.81-1.75.83-3.57,1.58-5.39,2.35-1.91.61-3.83,1.27-5.82,1.76l-3.06.6c-1.03.2-2.05.4-3.12.46-2.11.15-4.25.42-6.4.25l-3.25-.16c-1.09-.07-2.15-.29-3.23-.44-1.07-.19-2.18-.32-3.23-.59l-3.16-.88-1.59-.46-1.52-.59-3.04-1.22c-1.02-.41-1.93-.95-2.91-1.43-.95-.5-1.93-.99-2.85-1.54l-2.67-1.73c-.88-.59-1.8-1.16-2.6-1.81-3.34-2.51-6.44-5.25-9.16-8.17-5.54-5.82-9.94-12.19-13.7-18.68-3.73-6.52-6.76-13.19-9.27-19.94l-.96-2.53-.87-2.54c-.56-1.69-1.17-3.39-1.67-5.09l-1.48-5.11c-.5-1.71-.89-3.41-1.33-5.12l-.65-2.57c-.21-.86-.37-1.71-.56-2.57l-1.09-5.14c-.6-3.42-1.32-6.86-1.76-10.29C.85,389.26-.08,375.51,0,361.83c.07-27.39,3.75-54.43,10.43-80.82,1.66-6.6,3.61-13.15,5.65-19.67,1.06-3.25,2.2-6.48,3.32-9.72,1.22-3.21,2.33-6.45,3.64-9.63,5.14-12.76,11.02-25.31,18.23-37.37,3.53-6.05,7.46-11.97,11.69-17.74,4.17-5.8,8.89-11.37,13.96-16.75,5.1-5.36,10.67-10.5,17.01-15.15,6.35-4.61,13.41-8.84,21.54-11.88,8.05-3.09,17.45-4.76,26.95-3.96,1.18.12,2.36.16,3.54.4,1.17.21,2.34.44,3.5.68.58.12,1.16.23,1.73.38l1.71.49c1.13.34,2.27.65,3.36,1.1,4.44,1.57,8.53,3.83,12.19,6.38,3.66,2.55,6.93,5.43,9.69,8.51,2.78,3.07,5.27,6.25,7.31,9.55,1.09,1.63,1.97,3.31,2.94,4.95.85,1.68,1.77,3.33,2.49,5.02l1.13,2.52,1.02,2.53c.7,1.68,1.26,3.38,1.85,5.07,2.26,6.77,3.79,13.55,4.84,20.3,1.01,6.75,1.66,13.44,1.8,20.11.36,13.31-.72,26.42-3.2,39.22-3.1-12.66-6.39-24.99-10.52-36.75-4.14-11.72-9.1-22.95-15.24-32.58-.8-1.17-1.53-2.39-2.36-3.5l-1.21-1.69-1.26-1.61c-.82-1.1-1.72-2.05-2.55-3.08-.9-.93-1.74-1.94-2.67-2.77-3.58-3.54-7.41-6.17-10.99-7.59-3.59-1.48-6.92-1.74-10.17-1.29-3.24.43-6.57,1.61-10.15,3.69-7.13,4.17-14.52,11.39-20.94,19.92-6.51,8.5-12.28,18.23-17.42,28.44-1.32,2.52-2.49,5.18-3.75,7.75-.61,1.31-1.18,2.64-1.77,3.96-.59,1.32-1.19,2.63-1.73,3.99-1.1,2.69-2.26,5.35-3.29,8.09-1.09,2.7-2.08,5.46-3.08,8.21-1.02,2.74-1.93,5.55-2.9,8.31-.89,2.81-1.81,5.6-2.66,8.43-1.72,5.64-3.34,11.33-4.77,17.08-5.84,22.97-9.86,46.57-11.54,70.1-.45,5.89-.66,11.76-.83,17.63-.01,5.84-.11,11.71.22,17.5.08,2.92.32,5.78.48,8.67.28,2.85.49,5.74.85,8.56.62,5.69,1.56,11.26,2.71,16.7,1.18,5.43,2.57,10.75,4.41,15.68,1.78,4.96,3.94,9.6,6.44,13.67,2.53,4.03,5.37,7.53,8.61,10.05,3.24,2.5,6.91,4.25,11.23,4.98.53.15,1.09.17,1.65.21l1.7.15c1.15.03,2.34-.08,3.55-.06,1.21-.18,2.45-.31,3.71-.52,1.25-.33,2.54-.55,3.83-.9,5.18-1.43,10.43-3.93,15.58-6.98,5.12-3.09,10.15-6.71,15.03-10.69,4.9-3.98,9.54-8.38,14.31-12.85Z" />
                <path class="cls-3"
                    d="M134.03,131.17c15.15-15.67,38.43-17.7,56.34-4.81,16.46,11.81,25.95,31.05,30.17,50.37,7.35,36.19,6.07,73.94-1.05,109.98-4.79,23.73-11.86,46.93-21.76,68.78-.24.53-.86.76-1.39.52-.48-.22-.72-.76-.57-1.26,6.71-22.83,11.19-46.15,13.33-69.57,2.94-34.29,2.71-70.23-8.59-102.91-11.45-32.56-25.37-62-65.39-49.32-1.01.36-1.89-1.04-1.09-1.8h0Z" />
                <path class="cls-3"
                    d="M274.16,350.91c-2.17,11.52-8.19,25.94-19.74,30.98-17.29,6.69-28.21-11.65-31.37-25.79-6.44-27.88-.23-61.16,14.93-85.33,6.03-9.01,14.19-18.61,25.87-20.41,20.1-1.99,24.36,21.91,21.58,37.03-1.57-4.41-3.19-8.67-5.16-12.58-1.62-3.18-3.5-6.28-6.02-8.79-1.28-1.25-3.34-2.6-4.71-2.67-2.52-.23-4.12,1.08-6.18,2.81-11.46,11.75-17.11,33.45-20.18,49.48-1.5,8.28-2.4,16.66-2.52,24.9-.06,7.64.46,16.04,2.97,22.96,2.44,6.4,5.33,8.72,11.79,5.31,2.24-1.1,4.25-2.72,6.2-4.3,4.67-4.08,8.54-8.62,12.55-13.59h0Z" />
                <path class="cls-3"
                    d="M312.23,52.41c-28.47,18-62.77,26.05-96.3,25.85-48.68-.12-97.52-18.59-133.19-51.85-8.41-8.05-16.17-16.75-22.67-26.4,9.47,6.15,19.09,12.48,28.84,18.13,28.63,16.48,59.27,28.75,91.53,35.45,21.36,4.31,43.18,6.41,64.98,6.09,22.48-.19,44.67-3.19,66.81-7.26h0Z" />
                <path class="cls-3"
                    d="M147.26,87.27h36.07l-2.35,40.43c-3.5-1.95-10.35-5.13-19.43-5.25-14.23-.19-24.08,7.26-26.96,9.62,4.23-14.93,8.45-29.87,12.68-44.8Z" />
            </g>
            <g id="text">
                <path class="cls-2"
                    d="M423.99,225.73v23.48h-86.25v-107.43h84.26v23.48h-54.18v18.11h47.73v22.71h-47.73v19.64h56.17Z" />
                <path class="cls-2"
                    d="M531.73,225.12v24.1h-96.23v-19.03l54.18-64.31h-52.79v-24.1h92.54v19.03l-54.18,64.31h56.48Z" />
                <path class="cls-2" d="M541.25,194.27h44.81v22.41h-44.81v-22.41Z" />
                <path class="cls-2"
                    d="M706.38,219.75c0,18.57-15.35,29.47-44.2,29.47h-58.01v-107.43h54.94c28.24,0,42.05,11.51,42.05,28.09,0,10.28-5.22,18.57-14.43,23.33,12.12,4.3,19.64,13.51,19.64,26.55ZM634.25,163.73v20.72h20.87c10.13,0,15.35-3.53,15.35-10.44s-5.22-10.28-15.35-10.28h-20.87ZM675.69,216.37c0-7.37-5.53-10.9-15.96-10.9h-25.48v21.79h25.48c10.44,0,15.96-3.53,15.96-10.9Z" />
                <path class="cls-2" d="M722.19,141.78h30.39v107.43h-30.39v-107.43Z" />
                <path class="cls-2"
                    d="M815.66,210.23l-11.36,12.12v26.86h-30.08v-107.43h30.08v44.66l41.59-44.66h33.46l-43.89,47.58,46.2,59.85h-35.3l-30.69-38.98Z" />
                <path class="cls-2"
                    d="M975.89,225.73v23.48h-86.25v-107.43h84.26v23.48h-54.18v18.11h47.73v22.71h-47.73v19.64h56.17Z" />
                <path class="cls-2" d="M351.86,352.27v14.84h25.99v10.43h-25.99v20.46h-13v-56.15h42.43v10.43h-29.44Z" />
                <path class="cls-2"
                    d="M431.36,397.99l-10.83-15.64h-11.95v15.64h-12.99v-56.15h24.3c15,0,24.39,7.78,24.39,20.37,0,8.42-4.25,14.6-11.55,17.73l12.59,18.05h-13.96ZM419.17,352.43h-10.59v19.57h10.59c7.94,0,11.95-3.69,11.95-9.79s-4.01-9.79-11.95-9.79Z" />
                <path class="cls-2"
                    d="M503.47,387.57v10.43h-43.48v-56.15h42.43v10.43h-29.52v12.19h26.07v10.11h-26.07v13h30.56Z" />
                <path class="cls-2"
                    d="M562.76,387.57v10.43h-43.48v-56.15h42.43v10.43h-29.52v12.19h26.07v10.11h-26.07v13h30.56Z" />
                <path class="cls-2" d="M618.35,352.43h-17.97v-10.59h48.93v10.59h-17.97v45.56h-13v-45.56Z" />
                <path class="cls-2"
                    d="M657.41,369.92c0-16.68,13-29.04,30.72-29.04s30.72,12.27,30.72,29.04-13.08,29.04-30.72,29.04-30.72-12.35-30.72-29.04ZM705.7,369.92c0-10.67-7.54-17.97-17.57-17.97s-17.57,7.3-17.57,17.97,7.54,17.97,17.57,17.97,17.57-7.3,17.57-17.97Z" />
                <path class="cls-2"
                    d="M798.04,397.99l-10.83-15.64h-11.95v15.64h-12.99v-56.15h24.3c15,0,24.39,7.78,24.39,20.37,0,8.42-4.25,14.6-11.55,17.73l12.59,18.05h-13.96ZM785.84,352.43h-10.59v19.57h10.59c7.94,0,11.95-3.69,11.95-9.79s-4.01-9.79-11.95-9.79Z" />
                <path class="cls-2" d="M826.68,341.84h12.99v56.15h-12.99v-56.15Z" />
                <path class="cls-2"
                    d="M858.44,341.84h25.51c18.37,0,30.96,11.07,30.96,28.08s-12.59,28.08-30.96,28.08h-25.51v-56.15ZM883.31,387.32c11.15,0,18.45-6.66,18.45-17.41s-7.3-17.41-18.45-17.41h-11.87v34.81h11.87Z" />
                <path class="cls-2"
                    d="M973.63,387.57v10.43h-43.48v-56.15h42.43v10.43h-29.52v12.19h26.07v10.11h-26.07v13h30.56Z" />
            </g>
        </g>
    </g>
</svg>