<svg xmlns="http://www.w3.org/2000/svg" xmlns:xlink="http://www.w3.org/1999/xlink" width="1092.363" height="985.729" viewBox="0 0 1092.363 985.729">
  <defs>
    <clipPath id="clip-path">
      <path id="Tracé_56" data-name="Tracé 56" d="M4027.337-282.775h-944.05a647.755,647.755,0,0,0-92.707,334.911c0,359.436,291.38,650.817,650.817,650.817a647.834,647.834,0,0,0,385.939-126.777Z" transform="translate(-2990.581 282.775)" fill="none"/>
    </clipPath>
    <linearGradient id="linear-gradient" x1="0.5" y1="1" x2="0.5" gradientUnits="objectBoundingBox">
      <stop offset="0" stop-color="#d8efd1"/>
      <stop offset="0.483" stop-color="#e5f3dd"/>
      <stop offset="1" stop-color="#eff7e7"/>
    </linearGradient>
    <linearGradient id="linear-gradient-2" x1="0.849" y1="3.086" x2="0.892" y2="2.088" gradientUnits="objectBoundingBox">
      <stop offset="0.559" stop-color="#daf7b1"/>
      <stop offset="1" stop-color="#b3ef9e"/>
    </linearGradient>
    <linearGradient id="linear-gradient-3" x1="0.5" y1="1" x2="0.5" gradientUnits="objectBoundingBox">
      <stop offset="0.477" stop-color="#eff7e7" stop-opacity="0.6"/>
      <stop offset="0.782" stop-color="#fff"/>
    </linearGradient>
    <linearGradient id="linear-gradient-4" x1="0.5" y1="1" x2="0.5" y2="0" xlink:href="#linear-gradient-3"/>
    <linearGradient id="linear-gradient-5" x1="0.5" y1="1" x2="0.5" y2="0" xlink:href="#linear-gradient-3"/>
    <linearGradient id="linear-gradient-6" x1="0.5" y1="1" x2="0.5" gradientUnits="objectBoundingBox">
      <stop offset="0" stop-color="#b5d653"/>
      <stop offset="0.995" stop-color="#019961"/>
    </linearGradient>
    <linearGradient id="linear-gradient-7" x1="0.548" y1="0.178" x2="0.434" y2="0.586" xlink:href="#linear-gradient-6"/>
    <linearGradient id="linear-gradient-8" x1="0.293" y1="0.461" x2="0.733" y2="0.618" xlink:href="#linear-gradient-6"/>
    <linearGradient id="linear-gradient-9" x1="0.5" y1="1" x2="0.5" y2="-0.25" xlink:href="#linear-gradient-6"/>
    <linearGradient id="linear-gradient-10" x1="-6.202" y1="-8.992" x2="-6.202" y2="-9.971" gradientUnits="objectBoundingBox">
      <stop offset="0" stop-color="#9dea59"/>
      <stop offset="1" stop-color="#d8ff59"/>
    </linearGradient>
    <linearGradient id="linear-gradient-11" x1="0.5" y1="1" x2="0.5" y2="-0.004" xlink:href="#linear-gradient-6"/>
    <linearGradient id="linear-gradient-12" x1="0.5" y1="0.676" x2="0.5" y2="-1.274" xlink:href="#linear-gradient-6"/>
    <linearGradient id="linear-gradient-13" x1="0.5" y1="0.713" x2="0.5" y2="-0.149" gradientUnits="objectBoundingBox">
      <stop offset="0"/>
      <stop offset="0.199" stop-color="#151515"/>
      <stop offset="0.428" stop-color="#252525"/>
      <stop offset="0.681" stop-color="#2f2f2f"/>
      <stop offset="1" stop-color="#333"/>
    </linearGradient>
    <linearGradient id="linear-gradient-14" x1="0.5" y1="0.646" x2="0.5" y2="-0.619" xlink:href="#linear-gradient-6"/>
    <linearGradient id="linear-gradient-15" x1="0.487" y1="0.502" x2="0.712" y2="0.672" xlink:href="#linear-gradient-6"/>
    <linearGradient id="linear-gradient-16" x1="-2.997" y1="-4.678" x2="-2.997" y2="-5.61" xlink:href="#linear-gradient-10"/>
    <linearGradient id="linear-gradient-17" x1="0.725" y1="1.361" x2="0.729" y2="0.137" xlink:href="#linear-gradient-10"/>
    <linearGradient id="linear-gradient-18" x1="-91.821" y1="6.904" x2="-92.602" y2="6.191" xlink:href="#linear-gradient-10"/>
    <linearGradient id="linear-gradient-19" x1="-138.561" y1="0.276" x2="-139.799" y2="-0.367" xlink:href="#linear-gradient-10"/>
    <linearGradient id="linear-gradient-20" x1="-50.747" y1="57.504" x2="-51.187" y2="55.982" xlink:href="#linear-gradient-10"/>
    <linearGradient id="linear-gradient-21" x1="-438.068" y1="128.8" x2="-444.442" y2="124.835" gradientUnits="objectBoundingBox">
      <stop offset="0" stop-color="#3cc350"/>
      <stop offset="1" stop-color="#9dea59"/>
    </linearGradient>
    <linearGradient id="linear-gradient-22" x1="-372.083" y1="196.014" x2="-377.478" y2="190.211" xlink:href="#linear-gradient-21"/>
    <linearGradient id="linear-gradient-23" x1="294.648" y1="163.062" x2="301.869" y2="154.277" xlink:href="#linear-gradient-21"/>
    <linearGradient id="linear-gradient-24" x1="7.263" y1="-16.482" x2="5.764" y2="-18.305" xlink:href="#linear-gradient-21"/>
    <linearGradient id="linear-gradient-25" x1="0.579" y1="-0.084" x2="0.948" y2="1.075" xlink:href="#linear-gradient-6"/>
    <linearGradient id="linear-gradient-26" x1="1.105" y1="-0.122" x2="2.006" y2="2.232" xlink:href="#linear-gradient-6"/>
    <linearGradient id="linear-gradient-27" x1="0.5" y1="0.139" x2="0.5" y2="0.662" xlink:href="#linear-gradient-6"/>
  </defs>
  <g id="Groupe_19" data-name="Groupe 19" transform="translate(-2970.995 282.775)">
    <g id="Groupe_17" data-name="Groupe 17" transform="translate(3026.602 -282.775)">
      <g id="Groupe_16" data-name="Groupe 16" clip-path="url(#clip-path)">
        <g id="Groupe_15" data-name="Groupe 15" transform="translate(-404.321 -8.628)">
          <g id="Groupe_14" data-name="Groupe 14">
            <g id="Groupe_13" data-name="Groupe 13">
              <g id="Groupe_12" data-name="Groupe 12">
                <path id="Tracé_24" data-name="Tracé 24" d="M2848.173-285.814V345.451h259.771V740.7H4288.456V-285.814Z" transform="translate(-2848.173 285.814)" fill="url(#linear-gradient)"/>
                <path id="Tracé_25" data-name="Tracé 25" d="M4013.266-147.464c-35,8.449-61.917,37.764-96.68,47.116-72.1,19.4-141.975-52.442-216.1-43.49-62.479,7.547-102.466,67.646-151.742,106.787-53.169,42.23-123.853,61.667-191.139,52.556C3292.991,6.757,3228.154-26.8,3165.688-8.112c-44.637,13.358-77.081,50.625-113.07,80.215-31.779,26.126-74.406,47.46-112.951,38.4V368.674H4120.05V-58.076C4123.284-111.9,4065.683-160.121,4013.266-147.464Z" transform="translate(-2679.897 536.51)" fill="#fff" opacity="0.5"/>
                <path id="Tracé_26" data-name="Tracé 26" d="M2963.047,131.546C3026.576,33.222,3143.218-9.805,3241.563,28.8c42.721,16.771,83.179,47.545,128.112,47.088,109.117-1.1,153.332-124.191,272.6-111.639,35.45,3.728,71.19,11.391,106.4,5.874,38.456-6.025,72.606-27.179,105.606-47.82s67.239-41.676,105.73-47.44c44.038-6.593,94.538,13.12,109.775,57.712V251.818H2963.047Z" transform="translate(-2636.9 579.05)" fill="#fff"/>
                <path id="Tracé_27" data-name="Tracé 27" d="M3852.586-3.27c-42.2-24.371-96.3-26.807-140.52-6.329C3683.6,3.584,3660.01,25.1,3634.609,43.494s-54.742,34.348-86.1,33.516c-72.4-1.919-66.232-98.389-131.115-113.467-37.877-8.8-73.558,21.348-112.153,26.109-71.306,8.8-76.746-73.219-137-76.394-53.246-2.8-82.838,66.874-132.91,77.489C2967.1,5.179,2920.856-82.827,2853.27-99.907c-1.7-.429-3.4-.8-5.1-1.13V5.614h259.769V283.776H3930.89V123.263C3923.29,71.556,3899.084,23.586,3852.586-3.27Z" transform="translate(-2848.172 625.65)" fill="url(#linear-gradient-2)"/>
                <g id="Groupe_10" data-name="Groupe 10" transform="translate(0.001 161.178)">
                  <path id="Tracé_28" data-name="Tracé 28" d="M3865.979-191.2c-6.561-21.586-33.073-28.951-55.54-31.077-161.384-15.272-400.005-8.577-543.65,60.755-127.368,61.477-280.817-31.4-418.615-.17v12.708c9.2,29.337,45.591,46.514,78.046,48.808,36.73,2.6,74.866-5.724,109.8,5.928,33.259,11.093,57.982,38.4,85.851,59.676C3182.9,12.028,3264.491,30.6,3339.676,15c67.063-13.912,127.212-53.022,194.784-64.208,69.131-11.442,141.824,7.112,209.179-12.2a194.193,194.193,0,0,0,113.427-88.7C3864.266-162.609,3870.175-177.393,3865.979-191.2Z" transform="translate(-2848.173 229.045)" opacity="0.5" fill="url(#linear-gradient-3)"/>
                  <path id="Tracé_29" data-name="Tracé 29" d="M2979.317-200.351c1.122.287,2.249.514,3.37.786,2.118-.951,4.253-1.823,6.4-2.635Z" transform="translate(-2606.977 278.418)" fill="url(#linear-gradient-4)"/>
                  <path id="Tracé_30" data-name="Tracé 30" d="M2982.759-198.722l28.27-5.355A75,75,0,0,0,2982.759-198.722Z" transform="translate(-2600.647 274.941)" fill="url(#linear-gradient-5)"/>
                </g>
                <g id="Groupe_11" data-name="Groupe 11" transform="translate(91.104 274.267)">
                  <path id="Tracé_31" data-name="Tracé 31" d="M3489.711-166.6c-3.921-12.9-19.76-17.3-33.187-18.571-96.427-9.125-239.006-5.125-324.838,36.3-76.5,36.926-168.755-19.357-251.426.185,1,21.981,25.982,34.916,47.929,36.469s44.733-3.421,65.607,3.54c19.874,6.629,34.646,22.946,51.3,35.66,36.467,27.841,85.22,38.936,130.145,29.618,40.072-8.313,76.01-31.682,116.386-38.366,41.3-6.837,84.741,4.25,124.986-7.291a116.037,116.037,0,0,0,67.773-53C3488.689-149.516,3492.218-158.349,3489.711-166.6Z" transform="translate(-2880.26 189.213)" fill="#fff" opacity="0.5"/>
                  <path id="Tracé_32" data-name="Tracé 32" d="M2959.078-172.068c.67.173,1.343.307,2.013.468,1.266-.568,2.541-1.087,3.827-1.573Z" transform="translate(-2735.303 218.714)" fill="#fff"/>
                  <path id="Tracé_33" data-name="Tracé 33" d="M2961.135-171.094l16.89-3.2A44.85,44.85,0,0,0,2961.135-171.094Z" transform="translate(-2731.52 216.637)" fill="#fff"/>
                </g>
                <path id="Tracé_34" data-name="Tracé 34" d="M2950.442-19.491c98.75,76.374,230.541,98.741,355.028,89.377s244.708-47.448,364.912-81.143c139.7-39.161,285.249-64.824,429.984-64.824V354.97H2950.442Z" transform="translate(-2660.083 671.549)" fill="url(#linear-gradient-6)"/>
                <path id="Tracé_35" data-name="Tracé 35" d="M3501.037-100.644a8.6,8.6,0,0,0-1.9-1.987,21.161,21.161,0,0,0-6.7-3.274,106.41,106.41,0,0,0-44.028-4.969c-19.7,1.834-39.771,8.083-58.892,17.9A181.551,181.551,0,0,0,3351.85-66.8c.818-1.53,1.611-3.075,2.45-4.591a228.639,228.639,0,0,1,25.615-37.582,136.111,136.111,0,0,1,27.041-24.749c2.813-1.911,5.569-3.9,8.35-5.86a11.635,11.635,0,0,0,1.141-.846,1.232,1.232,0,0,0-.549-2.195,9.008,9.008,0,0,0-2.348-.15,18.868,18.868,0,0,0-5.747,1.371,113.792,113.792,0,0,0-28.252,14.863,182.26,182.26,0,0,0-29.165,27.052,198.325,198.325,0,0,0-18.673,25.4A183.727,183.727,0,0,0,3318.5-49.5c-1.727,4.185-3.34,8.58-4.859,13.091.335-10.315.986-20.615,2.139-30.882a228.578,228.578,0,0,1,9.2-44.541,135.953,135.953,0,0,1,15.448-33.244c1.86-2.845,3.64-5.746,5.45-8.623a10.741,10.741,0,0,0,.733-1.218,1.234,1.234,0,0,0-1.351-1.817,9.278,9.278,0,0,0-2.226.764,19.08,19.08,0,0,0-4.778,3.475,113.926,113.926,0,0,0-20.366,24.584,182.519,182.519,0,0,0-16.522,36.185,198.347,198.347,0,0,0-7.472,30.623,183.623,183.623,0,0,0-2.743,27.784,263.511,263.511,0,0,0,1.931,28.687c.914,7.987,2.195,15.925,3.663,23.832a230,230,0,0,0-9.731,47.34,139.492,139.492,0,0,0-.451,18.727,28.668,28.668,0,0,0,5.975,17.217c3.364,4.262,7.6,3.063,10.456-2.425a46.579,46.579,0,0,0,5.471-18.449c.38-4.988,1.025-9.971,1.689-14.937.906-6.749,2.019-13.475,3.427-20.161a6.312,6.312,0,0,0,3.486-3.191,18.882,18.882,0,0,0,2.175-12.149c-.167-1.005-.312-2.013-.463-3.021,1.394-3.955,2.9-7.873,4.458-11.763.326-.281.675-.514.988-.826,2.291-2.294,4.662-4.506,6.964-6.788,3.427-3.4,6.794-6.854,10.241-10.23,4.7-4.6,9.909-8.608,14.951-12.808q4.192-3.492,8.651-6.646a422.134,422.134,0,0,1,37.213-23.7,228.782,228.782,0,0,1,41.56-18.469,136.107,136.107,0,0,1,36.017-6.808c3.4-.145,6.792-.389,10.184-.591a10.685,10.685,0,0,0,1.418-.114,1.235,1.235,0,0,0,.69-2.158A9.1,9.1,0,0,0,3490.2-74.1a18.886,18.886,0,0,0-5.61-1.86,113.758,113.758,0,0,0-31.844-2.234,182.234,182.234,0,0,0-39.036,7.649,197.989,197.989,0,0,0-29.244,11.763c-5.457,2.649-10.795,5.539-16.131,8.787,1.456-1.451,2.907-2.9,4.406-4.307,17.214-16.158,37.17-28.943,58.541-36.892,17.239-6.434,35-9.46,51.945-8.387,4.664.29,9.329.593,13.932,1.073a19.082,19.082,0,0,0,1.933.17C3500.635-98.341,3501.717-99.559,3501.037-100.644Z" transform="translate(-2042.113 523.18)" fill="url(#linear-gradient-7)"/>
                <path id="Tracé_36" data-name="Tracé 36" d="M3416.482,170.24c2.467-1.139,4.966-2.217,7.394-3.433,3.239-1.621,6.453-3.3,9.611-5.057a20.529,20.529,0,0,0,3.423-2.55c.807-.707.745-1.425-.09-1.925-1.982-1.181-2.468-3.086-2.653-5.13a16.074,16.074,0,0,1,1.292-7.092A50.38,50.38,0,0,1,3445.55,128.6c2.24-2.436,4.676-4.75,7.026-7.115,3.032-3.049,6.162-6.039,9.083-9.162A49.544,49.544,0,0,0,3470.5,99.59a32.848,32.848,0,0,0,3.2-18.44,20.78,20.78,0,0,0-.763-3.467,10.375,10.375,0,0,0-1.208-2.589c-2.087-3.166-5.7-3.668-9.764-1.431a23.447,23.447,0,0,0-6.056,4.79q-2.814,3.092-5.4,6.326a114.483,114.483,0,0,1-9.034,10.423,41.865,41.865,0,0,1-3.578,3.163,9.45,9.45,0,0,1-2.373,1.246,1.335,1.335,0,0,1-1.877-.63,8.355,8.355,0,0,1-.525-2.362,15.57,15.57,0,0,1,.845-5.732c.7-2.209,1.469-4.415,2.335-6.6,2.833-7.166,5.63-14.341,7.961-21.583a116.786,116.786,0,0,0,4.88-20.913,51.457,51.457,0,0,0-.25-17.183,28.683,28.683,0,0,0-8.742-15.615,17.538,17.538,0,0,0-3.535-2.547c-3.731-2-8.007-1.175-11.481,2.09a12.468,12.468,0,0,0-3.01,4.111,43.72,43.72,0,0,0-2.211,5.888c-.912,3.441-1.6,6.9-2.332,10.349-.871,4.145-1.552,8.3-2.555,12.433-.764,3.134-1.857,6.258-2.89,9.375a22.779,22.779,0,0,1-1.607,3.58,12.574,12.574,0,0,1-1.754,2.493,4.557,4.557,0,0,1-5.444,1.286,6.243,6.243,0,0,1-2.881-2.788,22.051,22.051,0,0,1-2.419-7.084,40.114,40.114,0,0,1-.415-11.5c.4-3.674.954-7.359,1.468-11.042.77-5.519,1.743-11.053,2.314-16.564a100.027,100.027,0,0,0-1.84-32.79,46.07,46.07,0,0,0-6.2-15.51,32.541,32.541,0,0,0-8.2-8.833,16.688,16.688,0,0,0-5.267-2.64,9.126,9.126,0,0,0-10.209,3.637,14.13,14.13,0,0,0-2.453,5.091c-.614,2.447-1.122,4.906-1.593,7.359-.4,2.073-.633,4.145-1.016,6.218a29.7,29.7,0,0,1-2.9,8.878,20.184,20.184,0,0,1-2.433,3.555,6.665,6.665,0,0,1-6.218,2.266,9.754,9.754,0,0,1-3.651-1.266,15.743,15.743,0,0,1-5.34-5.113,27.329,27.329,0,0,1-3.87-9.105c-1.281-5.551-2.377-11.158-3.563-16.737a144.156,144.156,0,0,0-5.014-18.134c-1.2-3.4-2.41-6.8-3.815-10.116-4.853-11.456-11.392-21.9-21.01-30.467a45.429,45.429,0,0,0-9.633-6.715,29.926,29.926,0,0,0-6.295-2.427,20,20,0,0,0-5.543-.63,15.021,15.021,0,0,0-12.609,7.2,17.137,17.137,0,0,0-2.3,6.564,25.95,25.95,0,0,0,.672,10.746,119.306,119.306,0,0,0,4.87,12.782c.965,2.385,2.093,4.7,3.07,7.081a34.283,34.283,0,0,1,2.583,10.758,19.794,19.794,0,0,1-.063,3.867,15.6,15.6,0,0,1-.919,3.66c-1.423,3.68-4.429,5.974-8.571,7.118a16.719,16.719,0,0,1-7.277.443A40.727,40.727,0,0,1,3259-45.557c-2.777-.911-5.454-2-8.155-3.049a76.682,76.682,0,0,0-11.558-3.836,68.969,68.969,0,0,0-6.976-1.073,14.037,14.037,0,0,0-4.96.415,6.276,6.276,0,0,0-4.73,4.1,8.7,8.7,0,0,0,.1,6.033,29.131,29.131,0,0,0,4.5,7.825c5.15,6.737,11.95,11.981,19.724,16.328A153.069,153.069,0,0,0,3268.613-8.9c4.009,1.485,7.952,3.075,11.853,4.727A37.915,37.915,0,0,1,3288.595.46a25.217,25.217,0,0,1,3.182,2.879,4.537,4.537,0,0,1,1.334,3.208,1.606,1.606,0,0,1-1.589,1.672,12.545,12.545,0,0,1-2.613.162c-1.967-.116-3.934-.256-5.86-.505-3.355-.437-6.677-.962-10.014-1.457a73,73,0,0,0-14.076-.914A35.941,35.941,0,0,0,3250.3,6.76a34.845,34.845,0,0,0-3.815,1.366,11.266,11.266,0,0,0-6.249,6.331,12.549,12.549,0,0,0-.813,5.937,18.227,18.227,0,0,0,5.594,11.541,34.147,34.147,0,0,0,7.322,5.5,72.905,72.905,0,0,0,14.792,6.218c3.432,1.056,6.924,2.007,10.379,3.027,5.81,1.709,11.641,3.387,17.411,5.17a62.539,62.539,0,0,1,12.557,5.338c1.217.7,2.4,1.445,3.532,2.237a13.657,13.657,0,0,1,1.876,1.638c.738.747,1.647,1.573.892,2.751-.736,1.15-2.167,1.173-3.371,1.227a30.957,30.957,0,0,1-4.144-.068c-2.633-.233-5.241-.542-7.85-.849-4.378-.517-8.728-1.121-13.125-1.567a72.328,72.328,0,0,0-12.72-.031,28.363,28.363,0,0,0-7.839,1.6,27.544,27.544,0,0,0-4.388,2.1,11.247,11.247,0,0,0-5,6.039,13.265,13.265,0,0,0,1.4,12.353,22.6,22.6,0,0,0,7.654,6.962,69.251,69.251,0,0,0,17.753,7.248c8.771,2.286,17.533,4.594,26.24,7,3.8,1.05,7.49,2.311,11.153,3.6a32.8,32.8,0,0,1,7.634,3.773,6.761,6.761,0,0,1,2.391,2.354,1.49,1.49,0,0,1-.755,2.232,15.313,15.313,0,0,1-3.708,1.579c-2.26.537-4.551.852-6.83,1.212-4.211.667-8.425,1.232-12.629,1.965a35.735,35.735,0,0,0-9.728,3.2,17.139,17.139,0,0,0-4.363,3.1,10.415,10.415,0,0,0-3.414,6.933,11.483,11.483,0,0,0,2.462,7.907,39.73,39.73,0,0,0,7.739,7.527,26.316,26.316,0,0,0,9.043,4.165,67.313,67.313,0,0,0,14.183,2.229c5.062.247,10.127.514,15.235.537a276.358,276.358,0,0,1,27.708,1.689,57.6,57.6,0,0,1,25.609,8.645c3.447,2.22,7,4.327,10.5,6.485.065.04.131.085.193.128a4.479,4.479,0,0,0,4.815.182c3.595-1.723,7.231-3.359,10.852-5.031Z" transform="translate(-2160.404 601.026)" fill="url(#linear-gradient-8)"/>
                <path id="Tracé_37" data-name="Tracé 37" d="M3505.737-285.814H3280.2c11.468,35.478-5.38,74.026-6.4,111.6-1.425,52.474,31.8,104.217,80.116,124.75s108.63,8.543,145.417-28.9c2.2-2.237,4.315-4.574,6.4-6.936Z" transform="translate(-2065.454 285.814)" fill="url(#linear-gradient-9)"/>
                <path id="Tracé_38" data-name="Tracé 38" d="M3297.8,167.536c4.306-1.354,8.572-2.856,12.926-4.034,8.938-2.416,17.9-4.764,26.9-6.939a133.981,133.981,0,0,1,19.906-3.4c4.406-.378,8.807-.815,13.216-1.153a18.26,18.26,0,0,1,3.776.136,2.073,2.073,0,0,1,1.726,3.029,5.665,5.665,0,0,1-1.217,1.817,33.7,33.7,0,0,1-2.825,2.521,72.038,72.038,0,0,1-10.525,6.956A391.05,391.05,0,0,1,3307.84,191.3a484.988,484.988,0,0,1-46.618,14.761c-4.479,1.156-9.031,2.039-13.534,3.112a10.885,10.885,0,0,1-4.989-.082c-7.507-1.658-14.877-3.807-22.2-6.13-13.85-4.386-27.526-9.25-40.907-14.928a175.239,175.239,0,0,1-44.43-26.878c-2.334-1.956-4.532-4.091-6.675-6.26a10.684,10.684,0,0,1-2.09-3.123,2.251,2.251,0,0,1,2-3.4,7.465,7.465,0,0,1,2.5.162c2.655.65,5.321,1.289,7.921,2.121,11.939,3.813,23.534,8.543,35.121,13.3,14.517,5.954,28.752,12.524,42.9,19.3,1.02.488,2.062.923,3.271,1.459.1-1-.522-1.266-.92-1.613a386.009,386.009,0,0,1-34.345-33.985c-19.241-21.49-36.211-44.635-49.457-70.36-2.021-3.924-3.8-7.978-5.542-12.038a30.5,30.5,0,0,1-1.715-5.732,8.7,8.7,0,0,1,.085-3.416,2.224,2.224,0,0,1,2.868-1.794,7.46,7.46,0,0,1,2.833,1.275,39.82,39.82,0,0,1,4.721,4.179c4.966,5.3,9.942,10.6,14.724,16.073q13.1,14.987,25.967,30.172,18.134,21.285,37.036,41.895a28.034,28.034,0,0,0,4.168,3.941,12.981,12.981,0,0,0-.514-1.63,547.975,547.975,0,0,1-25.586-68.912,226.53,226.53,0,0,1-7.609-34.828,94.837,94.837,0,0,1-1.241-17.944,12.162,12.162,0,0,1,.4-2.794c.511-1.706,1.9-2.092,3.092-.843a12.824,12.824,0,0,1,2.044,2.785,73.977,73.977,0,0,1,3.3,6.817q5.431,13.47,10.71,27c9.534,24.295,18.838,48.683,29.161,72.663a11.633,11.633,0,0,0,1.914,3.291c-.037-.667-.052-1.334-.111-2-.349-3.881-.792-7.754-1.053-11.638-.857-12.827-1.263-25.672-1.306-38.522a277.545,277.545,0,0,1,2.2-39.391A216.832,216.832,0,0,1,3248.448-.488a29.829,29.829,0,0,1,1.289-2.879,9.172,9.172,0,0,1,1.213-1.84c1.451-1.669,3.1-1.451,3.884.574a10.93,10.93,0,0,1,.738,3.367c.181,3.89.357,7.788.32,11.68-.1,11.9-.329,23.8-.474,35.694-.163,13.585-.261,27.168-.433,40.753-.155,12.214-.371,24.428-.564,36.639-.031,2-.116,4-.128,6-.005,1.036.1,2.075.151,3.092,1,.179,1.119-.588,1.394-1.082,10.224-18.267,22.592-35.033,35.93-51.1a194.459,194.459,0,0,1,27.912-27.852,80.853,80.853,0,0,1,6.894-5.005,19.456,19.456,0,0,1,4.855-2.22,3.434,3.434,0,0,1,4.645,3.279,11.081,11.081,0,0,1-.341,4.049,83.17,83.17,0,0,1-3.242,9.216A252.386,252.386,0,0,1,3316.029,92.8c-10.588,17.237-21.984,33.939-33.056,50.855-.628.962-1.23,1.945-1.818,2.873.44.625.782.253,1.088.045.522-.352,1.019-.744,1.524-1.124a446.845,446.845,0,0,1,56.764-35.969,150.394,150.394,0,0,1,21.825-9.909,43.166,43.166,0,0,1,5.44-1.618,15.549,15.549,0,0,1,4.688-.358c2.992.315,4.409,2.618,3.378,5.465a17.213,17.213,0,0,1-2.3,4.1,45.306,45.306,0,0,1-7.64,7.964c-6.59,5.576-13.08,11.3-19.934,16.532-9.2,7.027-18.7,13.671-28.091,20.445-5.977,4.31-12,8.557-18,12.842a27.147,27.147,0,0,0-2.237,1.74c-.11.1.1.554.153.843l-.559-.187Z" transform="translate(-2336.998 799.848)" fill="url(#linear-gradient-10)"/>
                <path id="Tracé_39" data-name="Tracé 39" d="M2966.044-285.814c-5.911,4.9-11.266,10.434-14.361,17.379-12.853,28.809,19.882,57.885,50.418,65.809,88.968,23.085,192.546-27.7,271.158,19.931,49.955,30.268,73.783,92.676,124.2,122.175,43.578,25.5,103.309,19.539,140.987-14.077,23.693-21.138,38.8-51.395,65.239-68.986,35.336-23.511,81.41-18.892,123.838-17.833s91.439-6.016,114.039-41.943c11.661-18.537,13.768-41.319,15.568-63.143q.8-9.655,1.593-19.312Z" transform="translate(-2663.076 285.814)" fill="url(#linear-gradient-11)"/>
                <path id="Tracé_40" data-name="Tracé 40" d="M3660.709-285.814H2973.619a87.861,87.861,0,0,0,15.465,20.283c32.117,31.092,79.806,39.743,124.5,40.18s89.806-5.809,133.87,1.7c93.891,16,183.819,92.96,273.344,60.446C3579.609-184.564,3612.276-246.026,3660.709-285.814Z" transform="translate(-2617.456 285.814)" fill="url(#linear-gradient-12)"/>
                <path id="Tracé_41" data-name="Tracé 41" d="M3993.733-158.7v-6.588l-128.988,24.562,81.6-145.091h-48.1L3733.6-61.312l-136.9-224.5h-92.5l68.448,113.5L3422.81-261.494l-414.39,2.236,7.491,5.1,272.2,14.219-56.329,74.654,2.556,2.236,82.563-75.386,26.361,1.377,96.2,29.6,185,107.3,59.2,140.6,81.4,617.63,126.17-7.66L3790.951-9.513l44.565-79.24Z" transform="translate(-2553.451 285.814)" fill="url(#linear-gradient-13)"/>
                <path id="Tracé_42" data-name="Tracé 42" d="M3531.386-161.028c-55.8-54.753-202.626-39.927-262.2-21.68-49.4,15.13-159.212,70.218-144.193,136.192,4.935,21.677,28.682,33.724,50.708,36.722,46.892,6.377,99.7-18.517,145.2-1.97C3365.325,4.39,3387.491,33.058,3440.62,15.1c41.14-13.9,73.253-47.562,94.228-85.587,12.9-23.386,21.922-53.1,8.124-75.976A73.844,73.844,0,0,0,3531.386-161.028Z" transform="translate(-2341.616 444.92)" fill="#43af5c"/>
                <path id="Tracé_43" data-name="Tracé 43" d="M3500.128-166.465C3384.293-220.3,3239.2-219.719,3130.383-144.6c-10.025,6.922-20.692,15.5-22.2,27.588-2.507,19.979,21.972,33.383,42.033,31.651s38.665-12.16,58.762-13.367c31.907-1.911,59.878,19.153,87.072,35.952s62.811,29.982,89.891,13.006c23.988-15.039,33.167-49.6,60.063-58.436,14.944-4.912,31.125-.2,46.846.372s34.594-6.059,37.491-21.524C3533.512-146.3,3515.763-159.2,3500.128-166.465Z" transform="translate(-2370.306 435.806)" fill="url(#linear-gradient-14)"/>
                <path id="Tracé_44" data-name="Tracé 44" d="M3410.532,298.219c-2.986-.026-5.973.043-8.951-.1-3.973-.19-7.947-.457-11.9-.866a18.834,18.834,0,0,1-4.579-1.227,1.509,1.509,0,0,1-.773-2.422c1.454-2.564,1.082-5.187.349-7.808a22.368,22.368,0,0,0-4.483-8.018,56.216,56.216,0,0,0-17.5-14.644c-3.341-1.749-6.822-3.24-10.24-4.841-4.41-2.067-8.887-4-13.217-6.221a53.248,53.248,0,0,1-14.581-10.755,45.836,45.836,0,0,1-11.5-20.939,33.265,33.265,0,0,1-.795-4.7,17.236,17.236,0,0,1,.046-3.87c.666-5.065,4.062-7.7,9.135-7.214a21.892,21.892,0,0,1,8.22,2.516q4.208,2.24,8.25,4.784a116.231,116.231,0,0,0,13.737,7.8,40.091,40.091,0,0,0,5,1.9,8.488,8.488,0,0,0,2.939.21,1.657,1.657,0,0,0,1.6-1.826,13.442,13.442,0,0,0-.54-3.205,22.043,22.043,0,0,0-3.42-6.593c-1.7-2.328-3.458-4.619-5.307-6.831-6.064-7.251-12.09-14.531-17.683-22.157a158.62,158.62,0,0,1-14.288-23.046,78.483,78.483,0,0,1-7.477-21.319,47.322,47.322,0,0,1,1.736-24.133,25.477,25.477,0,0,1,2.4-5.11c2.836-4.546,7.489-5.923,12.438-3.841a13.278,13.278,0,0,1,4.863,3.384,55.09,55.09,0,0,1,4.863,6.022c2.46,3.734,4.711,7.606,6.991,11.456,2.733,4.619,5.283,9.355,8.147,13.892,2.173,3.441,4.674,6.678,7.114,9.943a27.5,27.5,0,0,0,3.216,3.518,13.521,13.521,0,0,0,2.882,2.09,4.385,4.385,0,0,0,6.027-1.456,9.654,9.654,0,0,0,1.633-5.045,36.616,36.616,0,0,0-.761-10.085,61.905,61.905,0,0,0-4.759-14.409c-2.052-4.307-4.261-8.537-6.433-12.788-3.254-6.377-6.718-12.654-9.766-19.125a154.969,154.969,0,0,1-12.9-41.443,76.612,76.612,0,0,1-.763-22.583,51.548,51.548,0,0,1,4.241-15.465,22.528,22.528,0,0,1,4.092-6.2c3.495-3.583,7.706-4.02,11.862-1.221a16.8,16.8,0,0,1,4.745,4.9c1.717,2.677,3.33,5.42,4.906,8.182,1.329,2.331,2.5,4.756,3.813,7.092a38.1,38.1,0,0,0,6.9,9.321,21.894,21.894,0,0,0,4.034,3.027c2.507,1.439,4.971,1.036,7.248-.681a12.165,12.165,0,0,0,3.087-3.6,24.356,24.356,0,0,0,3.053-9.287A45.422,45.422,0,0,0,3397.26,9.8c-1.213-7.558-2.636-15.079-3.956-22.62a237.443,237.443,0,0,1-3.132-25.149c-.326-4.864-.644-9.733-.727-14.6-.289-16.831,1.564-33.36,7.348-49.291a65.974,65.974,0,0,1,6.629-13.656,37.9,37.9,0,0,1,5.213-6.507,21.73,21.73,0,0,1,5.267-3.875,13.886,13.886,0,0,1,15.868,1.826,21.785,21.785,0,0,1,5.252,6.808,40.28,40.28,0,0,1,4.159,13.622c.764,6.135.681,12.311.869,18.472.1,3.481.017,6.964.108,10.445a56.087,56.087,0,0,0,2.251,14.7,30.045,30.045,0,0,0,1.8,4.73,21.053,21.053,0,0,0,2.57,4c3.077,3.739,7.121,4.886,11.785,3.983a16.533,16.533,0,0,0,7.487-3.523,47.1,47.1,0,0,0,5.192-4.906c2.373-2.677,4.567-5.519,6.8-8.316a94.737,94.737,0,0,1,9.855-11.186,76.581,76.581,0,0,1,6.5-5.218,13.68,13.68,0,0,1,5.152-2.26,6.1,6.1,0,0,1,6.584,2.413,13.208,13.208,0,0,1,2.618,7.49,48.324,48.324,0,0,1-.991,12.16c-2.132,11.184-6.587,21.444-12.419,31.146A201.974,201.974,0,0,1,3478.1-5.2c-3.347,4.069-6.584,8.234-9.747,12.447A52.539,52.539,0,0,0,3462.3,17.51a39.394,39.394,0,0,0-1.9,5.326,7.489,7.489,0,0,0,.108,4.7,1.667,1.667,0,0,0,2.344,1.173,12.277,12.277,0,0,0,2.689-1.261c1.919-1.241,3.827-2.513,5.645-3.9,3.163-2.413,6.255-4.92,9.372-7.39a77.135,77.135,0,0,1,13.693-8.989,33.934,33.934,0,0,1,9.236-3.293,31.474,31.474,0,0,1,4.438-.449,11.185,11.185,0,0,1,9.1,4.313,17.878,17.878,0,0,1,3.484,6.865,30.071,30.071,0,0,1-.413,17.35,50.4,50.4,0,0,1-4.863,10.863,94.219,94.219,0,0,1-12.024,15.928c-2.964,3.22-6.033,6.346-9.036,9.528-5.052,5.355-10.136,10.678-15.114,16.1a81.067,81.067,0,0,0-10.179,13.591c-.907,1.539-1.752,3.123-2.532,4.73a20.932,20.932,0,0,0-1.142,3.069c-.405,1.334-.942,2.859.342,3.89,1.255,1.008,2.7.233,3.929-.369a31.865,31.865,0,0,0,4.12-2.4c2.533-1.755,5.008-3.594,7.484-5.431,4.153-3.083,8.236-6.258,12.445-9.264a73.3,73.3,0,0,1,12.724-7.146,26.366,26.366,0,0,1,8.572-2.41,24.678,24.678,0,0,1,5.338.136,11.587,11.587,0,0,1,7.725,4.651,20.674,20.674,0,0,1,4.151,16.01,34.716,34.716,0,0,1-4.54,12.856,89.028,89.028,0,0,1-14.526,18.849c-7.756,7.72-15.493,15.459-23.133,23.293-3.33,3.416-6.462,7.03-9.556,10.664a44.011,44.011,0,0,0-5.949,8.918,10.5,10.5,0,0,0-1.337,4.233c-.054,1.36.434,2.2,1.76,2.328a13.675,13.675,0,0,0,4.426-.125c2.5-.6,4.94-1.493,7.384-2.322,4.517-1.53,8.991-3.188,13.538-4.634a32.2,32.2,0,0,1,11.18-1.491,15.73,15.73,0,0,1,5.763,1.386,12.294,12.294,0,0,1,6.536,6.635,18.77,18.77,0,0,1,1.091,11.124,61.822,61.822,0,0,1-4.369,13.6,34.647,34.647,0,0,1-7.183,10.184,75.012,75.012,0,0,1-13.206,10.672c-4.96,3.132-9.911,6.292-15.019,9.171a291.2,291.2,0,0,0-27,17.563,71.377,71.377,0,0,0-21.765,24.965c-2.452,4.662-5.061,9.242-7.6,13.858-.045.088-.091.176-.133.264a4.747,4.747,0,0,1-4.745,2.916c-4.375-.116-8.753-.1-13.128-.139Z" transform="translate(-1995.538 576.828)" fill="url(#linear-gradient-15)"/>
                <path id="Tracé_45" data-name="Tracé 45" d="M3525.977,72.905a259.649,259.649,0,0,0-46.935-46.029C3459.474,11.948,3438.354-.428,3416.219-9,3388.293-19.842,3359.576-25.6,3332-25.29a148.314,148.314,0,0,0-60.3,13.253c-3.285,1.5-6.462,3.143-8.816,5.508a12.043,12.043,0,0,0-2.342,3.027c-.783,1.6.888,3.137,3.029,2.91a25.931,25.931,0,0,0,2.655-.514c6.314-1.329,12.734-2.427,19.153-3.5C3308.72-8.548,3333.773-6.924,3358.6-.5c30.767,7.927,60.276,22.756,86.472,42.661a303.551,303.551,0,0,1,65.838,69.281,203.175,203.175,0,0,1,12.356,20.323c6.7,12.612,13.1,25.487,17.594,38.99,3.294,9.9,6.011,19.939,8.449,30.036,1.641,6.783,3.256,13.6,4.5,20.459a64.972,64.972,0,0,0,10.255,24.777c4.744,7.192,10.8,8.239,14.84,1.845,4.168-6.661,6.484-14.715,5.789-24.723a194.227,194.227,0,0,0-3.333-25.89,320.048,320.048,0,0,0-21.044-65.857A296.144,296.144,0,0,0,3525.977,72.905Z" transform="translate(-2090.106 764.94)" fill="url(#linear-gradient-16)"/>
                <path id="Tracé_46" data-name="Tracé 46" d="M3578.682,70.016A259.8,259.8,0,0,0,3521,38.487c-22.889-9.046-46.583-15.209-70.212-17.441-29.821-2.836-59.021-.565-85.471,7.231A148.268,148.268,0,0,0,3310.9,57.429c-2.751,2.334-5.364,4.781-6.985,7.7a12.03,12.03,0,0,0-1.43,3.549c-.318,1.757,1.709,2.777,3.705,1.979a25.04,25.04,0,0,0,2.416-1.221c5.712-3,11.592-5.795,17.477-8.58,21.388-10.133,45.932-15.385,71.57-15.953,31.765-.741,64.191,5.505,94.817,17.538a303.5,303.5,0,0,1,82.2,48.763,203.125,203.125,0,0,1,17.419,16.195c9.874,10.315,19.536,20.967,27.533,32.736,5.863,8.631,11.206,17.555,16.3,26.606,3.424,6.082,6.832,12.2,9.9,18.463a65.031,65.031,0,0,0,16.6,21.055c6.525,5.63,12.633,4.994,14.784-2.26,2.2-7.544,2.238-15.925-1.152-25.368a194.786,194.786,0,0,0-10.249-24.005,319.739,319.739,0,0,0-38.163-57.652A296.129,296.129,0,0,0,3578.682,70.016Z" transform="translate(-2012.687 848.024)" fill="url(#linear-gradient-17)"/>
                <path id="Tracé_47" data-name="Tracé 47" d="M3441.872,96.5a255.74,255.74,0,0,0-17-34.99,275.9,275.9,0,0,0-24.559-36.421c-11.72-14.406-24.481-27.756-39.072-39.317a158.573,158.573,0,0,0-38.493-22.3,26.4,26.4,0,0,0-7.924-2.234,12.768,12.768,0,0,0-3.277.077,1.718,1.718,0,0,0-.888,3.027,15.37,15.37,0,0,0,1.544,1.241c3.76,2.882,7.484,5.815,11.292,8.634,13.827,10.244,25.666,22.481,36.245,35.992a318.681,318.681,0,0,1,33.533,53.78A588.2,588.2,0,0,1,3417.7,120.4c1.792,4.739,3.387,9.562,4.792,14.429,2.538,8.784,5.42,17.484,7.248,26.461,1.34,6.587,2.524,13.2,3.825,19.8.873,4.432,1.885,8.838,2.736,13.276a26.329,26.329,0,0,0,8.711,14.832c4.276,3.858,9.514,3.268,12.771-1.485a25.781,25.781,0,0,0,4.941-16.456,153.428,153.428,0,0,0-1.511-15.789c-2.2-13.605-4.736-27.159-8.007-40.538A368.759,368.759,0,0,0,3441.872,96.5Z" transform="translate(-1998.71 740.054)" fill="url(#linear-gradient-18)"/>
                <path id="Tracé_48" data-name="Tracé 48" d="M3428.009,102.16a256.236,256.236,0,0,0-7.82-38.11A276.079,276.079,0,0,0,3405.4,22.688c-7.792-16.856-16.854-32.951-28.133-47.761a158.589,158.589,0,0,0-31.78-31.126,26.41,26.41,0,0,0-7.126-4.125,12.683,12.683,0,0,0-3.194-.735,1.717,1.717,0,0,0-1.609,2.711,15.433,15.433,0,0,0,1.186,1.584c2.934,3.722,5.815,7.484,8.807,11.158,10.863,13.347,19.309,28.131,26.217,43.84a318.739,318.739,0,0,1,19.191,60.4,589.4,589.4,0,0,1,9.718,60.7c.563,5.031.914,10.1,1.074,15.164.286,9.139.925,18.281.477,27.432-.329,6.715-.821,13.421-1.189,20.133-.25,4.511-.361,9.029-.634,13.54a26.358,26.358,0,0,0,4.771,16.527c3.188,4.792,8.412,5.519,12.745,1.718a25.785,25.785,0,0,0,8.855-14.721,152.836,152.836,0,0,0,2.442-15.672c1.231-13.727,2.129-27.486,2.268-41.259A368.283,368.283,0,0,0,3428.009,102.16Z" transform="translate(-1956.027 699.168)" fill="url(#linear-gradient-19)"/>
                <path id="Tracé_49" data-name="Tracé 49" d="M3464.658,33.986a255.945,255.945,0,0,0-35.532-15.843A276.076,276.076,0,0,0,3386.89,6.068c-18.239-3.487-36.6-5.494-55.208-4.952a158.568,158.568,0,0,0-43.811,7.7,26.465,26.465,0,0,0-7.5,3.39,12.517,12.517,0,0,0-2.458,2.166,1.718,1.718,0,0,0,1.265,2.89,15.371,15.371,0,0,0,1.979-.045c4.733-.213,9.473-.363,14.2-.656,17.177-1.056,34.115.69,50.909,4.225a318.956,318.956,0,0,1,60.274,19.587,588.8,588.8,0,0,1,55,27.46c4.419,2.473,8.745,5.139,12.953,7.958,7.6,5.093,15.4,9.9,22.575,15.593,5.266,4.179,10.43,8.483,15.672,12.694,3.521,2.831,7.129,5.553,10.638,8.4a26.318,26.318,0,0,0,16.21,5.749c5.753.2,9.385-3.62,8.819-9.355a25.77,25.77,0,0,0-6.8-15.774,153.05,153.05,0,0,0-11.317-11.115c-10.439-8.994-21.1-17.739-32.216-25.876A368.025,368.025,0,0,0,3464.658,33.986Z" transform="translate(-2058.663 813.367)" fill="url(#linear-gradient-20)"/>
                <path id="Tracé_50" data-name="Tracé 50" d="M2959.4,109.211c-3.179-3.89-6.161-7.955-9.116-12.024q-5.557-7.653-10.618-15.684v39q3.1,3.364,6.357,6.536a28.8,28.8,0,0,0,16.263,8.37c5.4.769,7.646-3.041,5.92-9A46.759,46.759,0,0,0,2959.4,109.211Z" transform="translate(-2679.897 961.374)" fill="url(#linear-gradient-21)"/>
                <path id="Tracé_51" data-name="Tracé 51" d="M2973.085-2.244a8.78,8.78,0,0,0-2.753-.128,21.278,21.278,0,0,0-7.137,2.263,105.171,105.171,0,0,0-23.526,15.136V34.489a118.258,118.258,0,0,1,21.211-23.628c3.589-3.018,7.189-6.025,10.866-8.867a18.307,18.307,0,0,0,1.521-1.218C2974.391-.291,2974.331-1.923,2973.085-2.244Z" transform="translate(-2679.897 807.024)" fill="url(#linear-gradient-22)"/>
                <path id="Tracé_52" data-name="Tracé 52" d="M2943.2,80.64c-1.2-1.5-2.365-3.015-3.535-4.534V98.513c.279.04.54.111.823.142,4.129.432,6.9-2.166,6.78-6.311A18.977,18.977,0,0,0,2943.2,80.64Z" transform="translate(-2679.897 951.446)" fill="url(#linear-gradient-23)"/>
                <path id="Tracé_53" data-name="Tracé 53" d="M2986.662,17.977a9.114,9.114,0,0,0-2.337.335,18.967,18.967,0,0,0-5.363,2.535,114.188,114.188,0,0,0-24.686,20.431,165.987,165.987,0,0,0-14.608,18.966v44.493c.4-1.354.769-2.72,1.187-4.071a229.627,229.627,0,0,1,17.4-42.2,136.529,136.529,0,0,1,21.456-29.894c2.368-2.459,4.665-4.986,6.99-7.481a11.615,11.615,0,0,0,.948-1.065A1.238,1.238,0,0,0,2986.662,17.977Z" transform="translate(-2679.897 844.535)" fill="url(#linear-gradient-24)"/>
              </g>
            </g>
          </g>
          <path id="Tracé_54" data-name="Tracé 54" d="M3450.525,76.442a431.549,431.549,0,0,0-70.868-50.813c-6.315,13.813-19.477,32.355-19.477,32.355,3.225-8.787.86-27.895-2.01-43.652a330.907,330.907,0,0,0-66.3-23.982c-6.89,15.266-18.06,31.986-18.06,31.986,1.9-5.485-.042-22.092-2.231-36.191-30.97-5.409-62.587-6.587-94.045-7.731l.048.1c13.719,29.008,27.583,58.231,44.126,85.666,13.5-3.875,29.454-8.827,35.811-12.268,0,0-10.507,18.21-24.422,30.163a338.882,338.882,0,0,0,20.911,28.011q6.89,8.262,14.328,16.016c13.422-9.659,29.72-22.464,37.111-32.463,0,0-11.129,25.084-23.109,46.375a559.957,559.957,0,0,0,50.21,41.52q13.479,10.029,27.413,19.488c17.18-10.684,34.871-22.54,41.484-29.811,0,0-9.461,23.142-22.1,42.386a428.91,428.91,0,0,0,61.5,31.989c8.525,3.535,17.248,6.76,26.1,9.619a141.08,141.08,0,0,0,10.905-28.644,264.8,264.8,0,0,1,5.047,33.326,253.873,253.873,0,0,0,52.012,8.353c14.809.738,23.039-3.941,26.974-11.51,7.021-13.509.355-36.225-7.075-53.8a134.689,134.689,0,0,0-11.676-21.336c-18.644,7.084-41.892,2.632-41.892,2.632l27.368-22.958a579.555,579.555,0,0,0-60.41-68.569c-12.833,13.336-36.591,28.525-36.591,28.525C3438.166,113.431,3445.69,91.907,3450.525,76.442Z" transform="translate(-2242.412 771.774)" fill="#019961"/>
          <path id="Tracé_55" data-name="Tracé 55" d="M3044.97,112.185c-1.142-8.242,5.53-15.948,13.321-18.869s16.411-2.2,24.7-1.448c16.348,1.5,45.623,8.926,57.008,11.927-5-3.447-9.955-6.959-14.821-10.613a338.425,338.425,0,0,1-34.707-30.073c-5.295-5.534-10.709-10.954-15.6-16.85-2.274-2.513-4.434-5.119-6.556-7.759-12.742,6.042-27.381,6.774-41.514,6.51-11.2-.21-23.385-1.371-31.532-9.06-3.023-2.856-5.377-6.8-5.084-10.951.463-6.536,7.163-10.939,13.591-12.2,10.167-2,20.626,1.178,30.18,5.193,9.219,3.875,25.581,13.818,32.386,18.037-1.99-2.524-3.958-5.065-5.943-7.592a336.293,336.293,0,0,1-33.687-55.543c-20.771,7.271-46.406-4.08-54.68-24.545a9.829,9.829,0,0,1-.948-5.258c.96-5.545,8.719-6.178,14.159-4.744,13.163,3.467,32.282,22.884,39.644,30.788a332.417,332.417,0,0,1-21.589-61.266c-4.362-7.047-19.378-28.491-22.481-35.243-2.935-6.382-4.971-13.483-3.8-20.411s6.223-13.54,13.137-14.792c10.357-1.879,19.048,8.313,22.356,18.3,4.273,12.9-4.409,42.781-7.2,51.721a330.073,330.073,0,0,0,21.078,58.9c-.273-6.022-1.238-28.588-.8-38.556.509-11.555,4.691-24.516,15.318-29.087,4.966-2.135,11.8-1.465,14.4,3.276,2.092,3.827.644,8.552-.934,12.617A269.3,269.3,0,0,1,3026.822-32.7a333.475,333.475,0,0,0,35.984,59.31c2.212,2.774,4.4,5.568,6.624,8.33-1.979-9.332-9.741-48.09-6.406-66.553,1.538-8.512,6.786-18.619,15.4-17.8,4.562.432,8.3,4.154,10,8.41s1.712,8.983,1.465,13.56c-1.113,20.624-9.271,45.43-19.514,63.546,2.229,2.743,4.5,5.451,6.9,8.058,4.884,5.806,10.286,11.13,15.562,16.569a335.578,335.578,0,0,0,34.544,29.5c6.181,4.577,12.5,8.958,18.895,13.228a139.45,139.45,0,0,1-28.4-54.867c-2.238-8.685-3.606-17.992-.86-26.529s10.633-15.97,19.593-15.59c10.292.437,17.62,10.363,20.973,20.1,8.626,25.064,1.338,52.6-7.3,77.66l-.636,1.437c17.827,11.737,36.225,22.716,54.157,34.516q15.182,10.025,29.695,21.061c-9.161-15.525-37.221-65.224-39.172-94.808-.483-7.325-.17-15.459,4.813-20.848,4.715-5.1,12.751-6.255,19.277-3.878s11.626,7.751,15.022,13.813c4.191,7.487,6.071,16.016,7.72,24.437,5.61,28.627,9.182,58.353-3.853,84.218a512.051,512.051,0,0,1,72.456,68.035c-8.222-15.085-22.489-42.48-27.25-59.3-3.453-12.2-6.062-25.03-3.766-37.494,1.564-8.483,5.344-16.408,9.736-23.832,3.7-6.249,8.322-12.589,15.178-14.979,7.137-2.484,15.323.034,21.106,4.9s9.5,11.746,12.3,18.764a103.992,103.992,0,0,1-5.829,88.06c-3.705,6.6-9.474,23.639-14.17,32.455q10.14,12.18,19.477,25.022a430.782,430.782,0,0,1,38.177,63.47c-2.674-22.444-10.348-94.655-3.291-131.7,2.948-15.468,9.154-32.951,24.074-37.985,14.107-4.761,30,4.954,36.557,18.318s5.8,29.127,3.251,43.794c-7.368,42.36-26.807,83.3-58.052,112.792q2.576,5.477,4.994,11.025a367.25,367.25,0,0,1,26,88.275l-6.907,1.073a360.278,360.278,0,0,0-24.587-86.064l-.4.576q-26.021,6.891-52.036,13.778c-9.116,2.413-18.281,4.835-27.665,5.775a82.573,82.573,0,0,1-29.851-2.342c-16.576-4.511-32.966-17.3-33.511-34.468a17.636,17.636,0,0,1,2.717-10.67c3.436-4.935,9.781-6.825,15.712-7.811,30.012-4.98,60.315,4.687,89.17,14.338,12.648,4.233,25.919,8.921,34.919,18.631a418.732,418.732,0,0,0-43.879-77.5c-3.7-5.2-7.541-10.3-11.456-15.334-8.6,5.224-40.946,24.67-57.11,31.237-18.738,7.612-40.094,9.429-59.375,3.319-6.837-2.163-13.711-5.588-17.575-11.629-4.923-7.694-3.677-18.284,1.477-25.828s13.571-12.339,22.313-14.991c13.56-4.108,28.028-3.577,42.181-2.964,21.507.931,44.575,2.592,62.442,13.747a502.7,502.7,0,0,0-80.681-79.057c-11.121,8.7-22.39,17.362-35.007,23.69-13.2,6.621-28.145,10.6-42.781,8.623-6.942-.937-13.927-3.339-18.946-8.222s-7.657-12.6-5.216-19.162c2.337-6.28,8.517-10.2,14.52-13.179,11.683-5.806,57.59-5.488,78.236,1.2q-11.566-8.675-23.557-16.748c-19.037-12.731-38.769-24.582-57.828-37.531-19.1,20.848-51.281,29.922-78.646,22.821C3055.957,126.769,3046.239,121.361,3044.97,112.185Z" transform="translate(-2622.282 512.049)" fill="url(#linear-gradient-25)"/>
        </g>
      </g>
    </g>
    <path id="Tracé_57" data-name="Tracé 57" d="M3143.568,106.609c6.147,4.176,12.37,8.225,18.611,12.237v-4.753q-6.3-4.008-12.538-8.092l.636-1.437c8.636-25.061,15.924-52.6,7.3-77.66-3.353-9.738-10.681-19.667-20.973-20.1-8.96-.378-16.847,7.052-19.593,15.59s-1.377,17.844.861,26.532a139.467,139.467,0,0,0,28.4,54.867c-6.4-4.273-12.714-8.654-18.9-13.228a335.937,335.937,0,0,1-34.544-29.5c-5.275-5.44-10.678-10.766-15.562-16.572-2.394-2.606-4.668-5.312-6.9-8.058,10.243-18.114,18.4-42.923,19.514-63.543.246-4.577.235-9.3-1.465-13.56s-5.437-7.978-10-8.412c-8.611-.818-13.859,9.29-15.4,17.8-3.336,18.463,4.427,57.221,6.406,66.556-2.226-2.765-4.412-5.559-6.624-8.333a333.373,333.373,0,0,1-35.984-59.31,269.316,269.316,0,0,0,27.552-52.706c1.578-4.066,3.026-8.79.934-12.614-2.6-4.741-9.437-5.414-14.4-3.276-10.627,4.571-14.809,17.529-15.318,29.087-.439,9.968.525,32.534.8,38.553a330.054,330.054,0,0,1-21.078-58.9c2.791-8.941,11.473-38.814,7.2-51.718-3.308-9.994-12-20.187-22.355-18.307-6.914,1.252-11.964,7.865-13.137,14.792s.863,14.028,3.8,20.414c3.1,6.749,18.12,28.2,22.481,35.243a332.391,332.391,0,0,0,21.589,61.264c-7.362-7.9-26.481-27.321-39.644-30.788-5.44-1.434-13.2-.8-14.159,4.744a9.842,9.842,0,0,0,.948,5.258c8.274,20.468,33.908,31.819,54.68,24.545a336.318,336.318,0,0,0,33.687,55.546c1.985,2.527,3.952,5.068,5.943,7.589-6.806-4.219-23.168-14.162-32.386-18.037-9.554-4.015-20.01-7.192-30.18-5.193-6.428,1.263-13.128,5.67-13.591,12.2-.292,4.151,2.061,8.1,5.084,10.953,8.146,7.686,20.335,8.847,31.529,9.057,14.136.264,28.775-.468,41.517-6.507,2.121,2.638,4.282,5.244,6.556,7.757,4.891,5.9,10.305,11.317,15.6,16.853a338.71,338.71,0,0,0,34.707,30.07c4.863,3.657,9.823,7.166,14.82,10.616-11.385-3-40.66-10.434-57.008-11.927-8.285-.758-16.9-1.476-24.7,1.445s-14.463,10.627-13.321,18.869c1.269,9.176,10.987,14.588,19.953,16.913C3092.287,136.531,3124.471,127.457,3143.568,106.609Z" transform="translate(0 221.259)" fill="url(#linear-gradient-26)"/>
    <g id="Groupe_18" data-name="Groupe 18" transform="translate(3396.557 141.221)">
      <path id="Tracé_58" data-name="Tracé 58" d="M3405.25,174.928c-16.493,8.481-29.129,22.858-39.771,38.09a279.919,279.919,0,0,0-22.356,20.334c-16.8,17.041-33.82,36.293-39.524,60.08,7.042-49.685,19.988-98.011,43.386-143.176,5.652-10.914,11.791-21.561,18.29-31.983.037.588.084.911.084.911,4.881.471,10.633-3.978,15.337-5.36,5.463-1.607,9.914-5.525,13.943-9.551,9.291-9.281,17.9-21.737,15.083-34.564-41.174,14.338-44.5,39.334-44.49,47.1a439.712,439.712,0,0,0-34.013,65.457A321.872,321.872,0,0,1,3340,123.224c.351-.534,26.068-39.533,29.8-57.97,2.745-13.571.337-27.594-2.073-41.228-16.026,8.994-26.023,26.447-29.618,44.467-3.464,17.362-1.647,35.322,1.513,52.763a322.205,322.205,0,0,0-9.383,63.419c-.369.917-.749,1.828-1.11,2.748-11.8,29.882-19.655,61.13-24.66,92.832-2.76,17.475-4.69,35.064-6.145,52.689a748.314,748.314,0,0,0-8.878-98.093c-2.342-14.852-5.25-29.587-8.338-44.288a.37.37,0,0,0,.028-.094,173.735,173.735,0,0,1,6.314-32.56c11.215-5.928,24.125-27.182,27.784-39.149,3.7-12.084,3.944-24.928,3.759-37.562-10.34,8.174-18.432,18.9-24.553,30.572-8.152,15.547-7.711,38.405-7.414,44.666a174.274,174.274,0,0,0-6.462,31.549c-3.895-18.432-8.037-36.818-11.671-55.31-.236-1.2-.461-2.41-.691-3.617a.367.367,0,0,0,.021-.227c-.38-1.743-.7-3.492-.988-5.241a.373.373,0,0,0-.017-.168l-.026-.074c-4.974-30.981,4.686-62.422,14.167-91.751q3.9-12.052,8.413-23.88c17.551-9.256,29.914-28.565,36.86-47.15,7.044-18.844,8.825-39.24,9.046-59.356-13.765,5.085-21.319,19.19-29.366,31.461-27.125,41.37-18.688,71.144-17.413,75.005q-4.824,12.666-8.955,25.592c-8.02,25.161-16.069,51.778-14.8,78.344-2.509-15.749-4.34-31.538-5.4-47.411a.408.408,0,0,0,.006-.213l-.028-.1q-1.228-18.491-1.017-37.162c.29-22.37,1.842-44.677,3.941-66.939a10.423,10.423,0,0,0,5.5-2.476c7.8-5.914,9.4-26.759,10.366-35.6a226.536,226.536,0,0,0-.728-55.151h0c-16.75,19.176-24.933,45.191-23.4,70.5.5,8.231,1.1,21.935,7.425,22.7-1.692,17.969-3.032,35.969-3.637,54.012q-.778,23.176.455,46.2c-9.557-32.173-32.5-56.147-55.157-80.17,1.42-9.051-5.4-27.477-10.2-35.209-4.821-7.759-11.428-14.221-18-20.573q-13.887-13.424-27.955-26.657c-7.791,15.581-1.729,33.709,5.977,49.336,9.429,19.122,41.634,30.461,48.746,32.767,12.779,13.54,25.695,27.04,36.288,41.98a177.974,177.974,0,0,0-32.114-9.667c.131-.136.27-.264.392-.406,0,0-24.664-34.36-85.726-5.937,8.938,14.437,28.15,18.239,45.132,18.48,7.361.105,15.019-.273,21.535-3.7,5.15-2.711,13.435-3.83,17.938-7.734a177.8,177.8,0,0,1,33.744,10.224c8.653,12.427,15.664,25.873,19.626,41.176a479.25,479.25,0,0,0,6.107,52.235c.117.659.248,1.317.363,1.979a76.811,76.811,0,0,0-19.019-27.858c-2.488-3.978-14.015-21.927-21.978-25.848-8.972-4.418-19.151-5.548-29.093-6.607q-8.943-.958-17.882-1.911c12.25,6.513,16.939,22.427,28.867,29.51,10.641,6.317,27.582,8.285,39.854,5.789a75.193,75.193,0,0,1,20.181,31.983c5.863,31.81,13.75,63.217,19.523,95.05a749.415,749.415,0,0,1,11.483,105.628c.111,2.9.2,5.792.27,8.688a368.693,368.693,0,0,0-30.87-99.047,413.273,413.273,0,0,0-26.612-47.286q-2.282-3.513-4.633-6.984l.145-1.07c-3.456-33.363-26.572-63.944-57.727-76.371-2.439,24.928,4.384,52.289,23.872,68.024a27.5,27.5,0,0,0,8.489,4.966c7.649,2.51,16.833-.045,23.7,3.7q3.313,4.872,6.51,9.815a409.035,409.035,0,0,1,26.265,47.178,368.5,368.5,0,0,1,31,103.386,759.475,759.475,0,0,1-5.153,101.889c-.065.534.769.608.833.074a759.308,759.308,0,0,0,5.132-100.149.412.412,0,0,0,.091-.221c1.142-15.184,2.7-30.3,4.782-45.288a.464.464,0,0,0,.747-.247c5.544-25.269,24.3-45.872,42.218-63.563,5.88-5.8,12.032-11.306,18.392-16.558,2.649.647,18.435,4.4,25.294,3.853,17.288-1.388,31.98-12.629,45.56-23.415l24.564-19.508C3444.3,164.815,3422.339,166.141,3405.25,174.928Z" transform="translate(-3120.885 111.437)" fill="url(#linear-gradient-27)"/>
    </g>
  </g>
</svg>
