<?xml version="1.0" encoding="UTF-8"?><svg id="Calque_1" xmlns="http://www.w3.org/2000/svg" viewBox="0 0 48 48"><defs><style>.cls-1{fill:#fff;fill-rule:evenodd;}.cls-2{fill:#008d41;}</style></defs><circle class="cls-2" cx="24" cy="24" r="24"/><path class="cls-1" d="m27.49,9.58h6.66l4.23,20.28c1.79.55,3.09,2.21,3.09,4.18,0,2.41-1.96,4.37-4.37,4.37s-4.37-1.96-4.37-4.37c0-1.61.87-3.01,2.16-3.77l-.04-.2-6.82,4.55c-1.15.77-2.5,1.17-3.88,1.17h-9.26c-.67,1.54-2.21,2.62-4,2.62-2.41,0-4.37-1.96-4.37-4.37s1.96-4.37,4.37-4.37c1.79,0,3.33,1.08,4,2.62h.7l-.09-.33c-.54-1.88-2.25-3.17-4.2-3.17h-1.29v-1.75h1.29c2.73,0,5.13,1.81,5.88,4.44l.23.81h6.74c.69,0,1.36-.2,1.94-.59l7.99-5.33-2.77-13.31h-3.82v-3.49Zm-16.6,25.34c.48,0,.87-.39.87-.87s-.39-.87-.87-.87-.87.39-.87.87.39.87.87.87Zm26.21,0c.48,0,.87-.39.87-.87s-.39-.87-.87-.87-.87.39-.87.87.39.87.87.87Z"/></svg>