<svg xmlns="http://www.w3.org/2000/svg" xmlns:xlink="http://www.w3.org/1999/xlink" width="565.636" height="536.674" viewBox="0 0 565.636 536.674">
  <defs>
    <linearGradient id="linear-gradient" x1="0.579" y1="-0.084" x2="0.948" y2="1.075" gradientUnits="objectBoundingBox">
      <stop offset="0" stop-color="#b5d653"/>
      <stop offset="0.995" stop-color="#019961"/>
    </linearGradient>
  </defs>
  <path id="Tracé_69" data-name="Tracé 69" d="M3026.406,43.175c-.855-6.174,4.142-11.946,9.978-14.134s12.292-1.65,18.5-1.085c12.245,1.121,34.173,6.686,42.7,8.934-3.743-2.582-7.456-5.212-11.1-7.95a253.484,253.484,0,0,1-26-22.526c-3.966-4.145-8.022-8.2-11.686-12.622-1.7-1.882-3.322-3.834-4.911-5.812-9.544,4.526-20.51,5.074-31.1,4.876-8.387-.157-17.517-1.027-23.619-6.786-2.265-2.139-4.028-5.093-3.809-8.2.346-4.9,5.365-8.194,10.181-9.14,7.616-1.5,15.45.883,22.606,3.89,6.906,2.9,19.161,10.351,24.259,13.511-1.491-1.891-2.965-3.794-4.451-5.687a251.886,251.886,0,0,1-25.233-41.6c-15.559,5.446-34.761-3.056-40.958-18.385a7.356,7.356,0,0,1-.71-3.939c.719-4.153,6.531-4.628,10.605-3.554,9.859,2.6,24.181,17.141,29.7,23.062a249.057,249.057,0,0,1-16.171-45.891c-3.267-5.278-14.515-21.341-16.839-26.4-2.2-4.781-3.724-10.1-2.845-15.289s4.661-10.142,9.84-11.08c7.758-1.408,14.268,6.227,16.746,13.711,3.2,9.666-3.3,32.045-5.393,38.742a247.214,247.214,0,0,0,15.788,44.118c-.2-4.511-.926-21.413-.6-28.88.381-8.656,3.513-18.364,11.473-21.788,3.72-1.6,8.843-1.1,10.789,2.454,1.568,2.867.483,6.405-.7,9.451a201.731,201.731,0,0,1-20.637,39.48,249.784,249.784,0,0,0,26.954,44.426c1.656,2.078,3.295,4.17,4.961,6.24-1.482-6.99-7.3-36.022-4.8-49.851,1.153-6.376,5.083-13.947,11.533-13.334,3.417.323,6.219,3.111,7.49,6.3s1.283,6.729,1.1,10.157c-.834,15.448-6.944,34.029-14.617,47.6,1.669,2.054,3.37,4.083,5.166,6.035,3.657,4.349,7.705,8.337,11.656,12.411a251.288,251.288,0,0,0,25.875,22.094c4.629,3.428,9.359,6.71,14.153,9.908a104.448,104.448,0,0,1-21.271-41.1c-1.676-6.505-2.7-13.477-.644-19.872s7.964-11.963,14.676-11.678c7.709.328,13.2,7.762,15.71,15.059,6.46,18.774,1,39.4-5.468,58.171l-.477,1.076c13.354,8.792,27.135,17.015,40.566,25.854q11.373,7.509,22.243,15.776c-6.863-11.629-27.881-48.856-29.342-71.016-.362-5.487-.127-11.58,3.6-15.616,3.532-3.824,9.551-4.685,14.44-2.905s8.708,5.806,11.252,10.346c3.139,5.608,4.547,12,5.782,18.3,4.2,21.443,6.878,43.709-2.885,63.083a383.545,383.545,0,0,1,54.273,50.961c-6.159-11.3-16.845-31.819-20.411-44.422-2.586-9.136-4.541-18.749-2.82-28.085,1.171-6.355,4-12.29,7.292-17.851,2.772-4.681,6.234-9.43,11.369-11.22,5.346-1.861,11.478.025,15.81,3.669s7.116,8.8,9.213,14.055a77.9,77.9,0,0,1-4.366,65.961c-2.776,4.945-7.1,17.707-10.615,24.31q7.6,9.123,14.589,18.742a322.675,322.675,0,0,1,28.6,47.542c-2-16.811-7.751-70.9-2.465-98.648,2.208-11.586,6.857-24.682,18.032-28.453,10.567-3.566,22.468,3.711,27.383,13.721s4.344,21.818,2.435,32.8c-5.519,31.73-20.08,62.392-43.484,84.486q1.93,4.1,3.741,8.258a275.087,275.087,0,0,1,19.473,66.122l-5.174.8a269.842,269.842,0,0,0-18.417-64.466l-.3.432-38.978,10.321c-6.828,1.808-13.694,3.622-20.722,4.326a61.853,61.853,0,0,1-22.36-1.754c-12.416-3.379-24.693-12.958-25.1-25.818a13.212,13.212,0,0,1,2.035-7.992c2.574-3.7,7.326-5.113,11.769-5.85,22.48-3.73,45.179,3.511,66.792,10.74,9.474,3.171,19.414,6.682,26.156,13.955a313.672,313.672,0,0,0-32.867-58.052c-2.773-3.894-5.648-7.713-8.581-11.486-6.44,3.913-30.671,18.479-42.778,23.4-14.036,5.7-30.032,7.063-44.475,2.486-5.121-1.621-10.27-4.185-13.165-8.711-3.687-5.763-2.754-13.7,1.106-19.346s10.166-9.243,16.714-11.229c10.156-3.077,20.995-2.68,31.6-2.22,16.11.7,33.389,1.942,46.772,10.3a376.508,376.508,0,0,0-60.433-59.217c-8.33,6.52-16.771,13-26.222,17.745-9.889,4.959-21.082,7.937-32.045,6.459-5.2-.7-10.432-2.5-14.191-6.159s-5.735-9.436-3.907-14.353c1.75-4.7,6.38-7.639,10.875-9.872,8.751-4.349,43.137-4.111,58.6.9q-8.664-6.5-17.645-12.545c-14.26-9.536-29.04-18.413-43.316-28.112-14.3,15.616-38.412,22.413-58.909,17.094C3034.636,54.1,3027.356,50.049,3026.406,43.175Z" transform="translate(-1379.202 -2403.017) rotate(57)" fill="url(#linear-gradient)"/>
</svg>
